
<svg xmlns="http://www.w3.org/2000/svg" version="1.1" xmlns:xlink="http://www.w3.org/1999/xlink" preserveAspectRatio="none" x="0px" y="0px" width="13px" height="20px" viewBox="0 0 13 20">
<defs>
<g id="Layer2_0_FILL">
<path fill="#FFFFFF" stroke="none" d="
M 9.15 16.1
Q 8.05 17.15 6.5 17.15 5 17.15 3.9 16.1 2.85 15 2.85 13.5
L 0 13.5
Q 0 16.2 1.9 18.1 3.8 20 6.5 20 9.2 20 11.15 18.1 13.05 16.2 13.05 13.5
L 10.2 13.5
Q 10.2 15 9.15 16.1
M 13.05 6.5
Q 13.05 3.8 11.15 1.9 9.2 0 6.5 0 3.8 0 1.9 1.9 0 3.8 0 6.5 0 9.2 1.9 11.1 3.8 13.05 6.5 13.05 9.2 13.05 11.15 11.1 13.05 9.2 13.05 6.5
M 6.5 2.85
Q 8.05 2.85 9.15 3.9 10.2 5 10.2 6.5 10.2 8.05 9.15 9.15 8.05 10.2 6.5 10.2 5 10.2 3.9 9.15 2.85 8.05 2.85 6.5 2.85 5 3.9 3.9 5 2.85 6.5 2.85 Z"/>
</g>
</defs>

<g transform="matrix( 1, 0, 0, 1, 0,0) ">
<use xlink:href="#Layer2_0_FILL"/>
</g>
</svg>
