<?xml version="1.0" encoding="UTF-8" standalone="no"?>
<!-- Created with Inkscape (http://www.inkscape.org/) -->

<svg
   xmlns:dc="http://purl.org/dc/elements/1.1/"
   xmlns:cc="http://creativecommons.org/ns#"
   xmlns:rdf="http://www.w3.org/1999/02/22-rdf-syntax-ns#"
   xmlns:svg="http://www.w3.org/2000/svg"
   xmlns="http://www.w3.org/2000/svg"
   xmlns:sodipodi="http://sodipodi.sourceforge.net/DTD/sodipodi-0.dtd"
   xmlns:inkscape="http://www.inkscape.org/namespaces/inkscape"
   width="143.73669mm"
   height="39.305653mm"
   viewBox="0 0 143.73669 39.305653"
   version="1.1"
   id="svg8"
   inkscape:version="0.92.4 (5da689c313, 2019-01-14)"
   sodipodi:docname="logo-h-w.svg">
  <defs
     id="defs2">
    <clipPath
       id="clipPath3731"
       clipPathUnits="userSpaceOnUse">
      <path
         inkscape:connector-curvature="0"
         id="path3729"
         d="M 0,841.89 H 595.276 V 0 H 0 Z" />
    </clipPath>
  </defs>
  <sodipodi:namedview
     id="base"
     pagecolor="#ffffff"
     bordercolor="#666666"
     borderopacity="1.0"
     inkscape:pageopacity="0.0"
     inkscape:pageshadow="2"
     inkscape:zoom="0.98994949"
     inkscape:cx="156.76928"
     inkscape:cy="48.510303"
     inkscape:document-units="mm"
     inkscape:current-layer="g3725"
     showgrid="false"
     inkscape:window-width="1366"
     inkscape:window-height="705"
     inkscape:window-x="-8"
     inkscape:window-y="-8"
     inkscape:window-maximized="1" />
  <metadata
     id="metadata5">
    <rdf:RDF>
      <cc:Work
         rdf:about="">
        <dc:format>image/svg+xml</dc:format>
        <dc:type
           rdf:resource="http://purl.org/dc/dcmitype/StillImage" />
        <dc:title></dc:title>
      </cc:Work>
    </rdf:RDF>
  </metadata>
  <g
     inkscape:label="Camada 1"
     inkscape:groupmode="layer"
     id="layer1"
     transform="translate(-291.74475,-172.13258)">
    <g
       id="g3725"
       transform="matrix(0.35277777,0,0,-0.35277777,-24.000424,281.79578)">
      <path
         inkscape:connector-curvature="0"
         id="path3867"
         style="fill:#ffffff;fill-opacity:1;fill-rule:nonzero;stroke:none"
         d="m 1039.3333,199.43872 h -26 v 68.708 h 26 z" />
      <path
         inkscape:connector-curvature="0"
         id="path3869"
         style="fill:#fbbc09;fill-opacity:1;fill-rule:nonzero;stroke:none"
         d="m 1013.3333,310.85572 h 26 v -26 h -26 z" />
      <g
         transform="translate(1123.3987,234.64032)"
         id="g3871"
         style="fill:#ffffff">
        <path
           inkscape:connector-curvature="0"
           id="path3873"
           style="fill:#ffffff;fill-opacity:1;fill-rule:nonzero;stroke:none"
           d="m 0,0 c -5.413,-5.663 -13.031,-9.201 -21.466,-9.201 -16.381,0 -29.708,13.327 -29.708,29.709 0,16.381 13.327,29.708 29.708,29.708 7.948,0 15.171,-3.144 20.508,-8.244 L 17.418,60.348 C 7.371,70.155 -6.35,76.216 -21.466,76.216 c -30.718,0 -55.708,-24.99 -55.708,-55.708 0,-30.718 24.99,-55.709 55.708,-55.709 15.603,0 29.718,6.455 39.842,16.825 z" />
      </g>
      <g
         transform="translate(950.7337,268.14722)"
         id="g3875"
         style="fill:#ffffff">
        <path
           inkscape:connector-curvature="0"
           id="path3877"
           style="fill:#ffffff;fill-opacity:1;fill-rule:nonzero;stroke:none"
           d="M 0,0 V -26 H 26.707 C 21.876,-35.883 11.722,-42.708 0,-42.708 c -16.381,0 -29.708,13.327 -29.708,29.709 0,16.381 13.327,29.708 29.708,29.708 v 26 c -30.718,0 -55.708,-24.99 -55.708,-55.708 0,-30.718 24.99,-55.709 55.708,-55.709 30.718,0 55.708,24.99 55.709,55.708 V 0 Z" />
      </g>
      <g
         transform="translate(1167.6859,258.53392)"
         id="g3879"
         style="fill:#ffffff">
        <path
           inkscape:connector-curvature="0"
           id="path3881"
           style="fill:#ffffff;fill-opacity:1;fill-rule:nonzero;stroke:none"
           d="M 0,0 H -3.356 V 2.293 H 2.74 V -5.258 C 2.517,-5.34 2.231,-5.425 1.884,-5.515 1.538,-5.604 1.15,-5.685 0.722,-5.756 c -0.43,-0.07 -0.871,-0.128 -1.326,-0.173 -0.455,-0.045 -0.906,-0.067 -1.354,-0.067 -1.342,0 -2.515,0.182 -3.518,0.543 -1.003,0.361 -1.837,0.87 -2.505,1.527 -0.668,0.655 -1.167,1.437 -1.499,2.343 -0.332,0.906 -0.498,1.907 -0.498,3.004 0,0.775 0.087,1.516 0.262,2.22 0.176,0.705 0.433,1.358 0.773,1.958 0.339,0.599 0.751,1.142 1.236,1.628 0.484,0.484 1.038,0.898 1.661,1.241 0.622,0.343 1.304,0.606 2.047,0.789 0.741,0.182 1.538,0.274 2.388,0.274 0.753,0 1.468,-0.055 2.147,-0.163 C 1.216,9.26 1.771,9.128 2.203,8.971 V 6.645 C 1.622,6.831 1.035,6.973 0.441,7.069 -0.151,7.166 -0.749,7.216 -1.354,7.216 -2.167,7.216 -2.927,7.094 -3.635,6.852 -4.344,6.609 -4.958,6.251 -5.476,5.777 -5.994,5.305 -6.402,4.721 -6.701,4.027 -6.999,3.333 -7.148,2.532 -7.148,1.622 c 0.007,-1.768 0.469,-3.093 1.386,-3.976 0.918,-0.884 2.22,-1.327 3.905,-1.327 0.313,0 0.637,0.017 0.973,0.05 0.336,0.034 0.63,0.078 0.884,0.129 z" />
      </g>
      <g
         transform="translate(1177.9652,261.85612)"
         id="g3883"
         style="fill:#ffffff">
        <path
           inkscape:connector-curvature="0"
           id="path3885"
           style="fill:#ffffff;fill-opacity:1;fill-rule:nonzero;stroke:none"
           d="m 0,0 c -0.335,0 -0.635,-0.062 -0.895,-0.185 -0.261,-0.123 -0.487,-0.291 -0.677,-0.503 -0.19,-0.212 -0.34,-0.46 -0.452,-0.745 -0.113,-0.283 -0.188,-0.584 -0.225,-0.906 h 4.263 c 0,0.322 -0.044,0.623 -0.129,0.906 C 1.799,-1.148 1.672,-0.9 1.504,-0.688 1.337,-0.476 1.128,-0.308 0.878,-0.185 0.628,-0.062 0.336,0 0,0 m 1.062,-7.182 c 0.515,0 1.052,0.052 1.612,0.157 0.558,0.105 1.126,0.254 1.7,0.448 V -8.691 C 4.031,-8.841 3.505,-8.982 2.797,-9.117 2.088,-9.251 1.354,-9.318 0.594,-9.318 c -0.769,0 -1.498,0.099 -2.189,0.297 -0.688,0.197 -1.291,0.516 -1.805,0.956 -0.515,0.439 -0.923,1.01 -1.226,1.711 -0.301,0.701 -0.452,1.551 -0.452,2.55 0,0.985 0.141,1.846 0.425,2.584 0.283,0.739 0.664,1.351 1.141,1.835 0.477,0.485 1.024,0.849 1.639,1.09 0.614,0.243 1.25,0.364 1.906,0.364 C 0.72,2.069 1.352,1.965 1.93,1.756 2.508,1.548 3.008,1.22 3.429,0.772 3.85,0.324 4.178,-0.252 4.413,-0.956 4.647,-1.661 4.765,-2.494 4.765,-3.456 4.758,-3.829 4.747,-4.146 4.731,-4.407 h -7.103 c 0.038,-0.5 0.15,-0.927 0.336,-1.28 0.186,-0.356 0.431,-0.643 0.733,-0.863 0.302,-0.221 0.654,-0.381 1.057,-0.481 0.402,-0.1 0.84,-0.151 1.308,-0.151" />
      </g>
      <g
         transform="translate(1189.9905,255.96062)"
         id="g3887"
         style="fill:#ffffff">
        <path
           inkscape:connector-curvature="0"
           id="path3889"
           style="fill:#ffffff;fill-opacity:1;fill-rule:nonzero;stroke:none"
           d="M 0,0 C 0,0.231 -0.065,0.422 -0.196,0.57 -0.326,0.72 -0.5,0.845 -0.716,0.945 -0.933,1.047 -1.18,1.134 -1.46,1.208 -1.74,1.283 -2.032,1.358 -2.338,1.432 -2.726,1.536 -3.099,1.657 -3.457,1.796 -3.814,1.934 -4.13,2.114 -4.401,2.338 -4.674,2.563 -4.89,2.844 -5.052,3.183 c -0.16,0.339 -0.239,0.755 -0.239,1.247 0,0.604 0.107,1.128 0.323,1.571 0.217,0.444 0.51,0.811 0.879,1.103 0.369,0.291 0.799,0.507 1.287,0.648 0.489,0.143 1.005,0.213 1.549,0.213 0.663,0 1.286,-0.054 1.867,-0.162 C 1.197,7.695 1.723,7.555 2.191,7.384 V 5.224 C 1.946,5.307 1.687,5.383 1.414,5.453 1.143,5.524 0.866,5.586 0.587,5.639 0.308,5.689 0.03,5.733 -0.247,5.768 -0.522,5.801 -0.783,5.817 -1.03,5.817 -1.343,5.817 -1.607,5.787 -1.824,5.728 -2.04,5.667 -2.215,5.588 -2.35,5.487 -2.483,5.387 -2.58,5.271 -2.641,5.14 -2.7,5.01 -2.729,4.873 -2.729,4.732 -2.729,4.485 -2.664,4.285 -2.534,4.128 -2.403,3.972 -2.223,3.845 -1.991,3.747 -1.76,3.651 -1.519,3.57 -1.264,3.508 -1.011,3.443 -0.765,3.382 -0.525,3.323 -0.152,3.233 0.219,3.125 0.592,2.998 0.965,2.871 1.302,2.694 1.6,2.467 1.897,2.239 2.142,1.945 2.332,1.583 2.522,1.222 2.617,0.761 2.617,0.202 2.617,-0.409 2.501,-0.943 2.271,-1.397 2.039,-1.853 1.717,-2.231 1.303,-2.533 0.889,-2.835 0.393,-3.059 -0.186,-3.204 c -0.578,-0.147 -1.212,-0.219 -1.906,-0.219 -0.686,0 -1.304,0.055 -1.851,0.162 -0.548,0.109 -1.002,0.244 -1.36,0.409 v 2.136 c 0.582,-0.216 1.118,-0.363 1.612,-0.442 0.492,-0.077 0.951,-0.116 1.376,-0.116 0.328,0 0.633,0.023 0.917,0.073 0.283,0.048 0.527,0.124 0.732,0.228 0.205,0.104 0.368,0.238 0.486,0.398 C -0.06,-0.415 0,-0.224 0,0" />
      </g>
      <g
         transform="translate(1201.5237,252.82882)"
         id="g3891"
         style="fill:#ffffff">
        <path
           inkscape:connector-curvature="0"
           id="path3893"
           style="fill:#ffffff;fill-opacity:1;fill-rule:nonzero;stroke:none"
           d="m 0,0 c -0.299,-0.09 -0.654,-0.16 -1.068,-0.213 -0.414,-0.052 -0.8,-0.078 -1.158,-0.078 -0.911,0 -1.654,0.147 -2.232,0.442 -0.578,0.295 -0.986,0.717 -1.225,1.27 -0.171,0.395 -0.257,0.932 -0.257,1.61 v 5.615 h -2.025 v 2.182 h 2.025 v 3.031 h 2.651 v -3.031 h 3.132 V 8.646 H -3.289 V 3.379 c 0,-0.418 0.062,-0.728 0.19,-0.929 0.223,-0.343 0.667,-0.514 1.331,-0.514 0.306,0 0.61,0.023 0.913,0.072 0.3,0.049 0.586,0.11 0.855,0.184 z" />
      </g>
      <g
         transform="translate(1211.1878,258.23112)"
         id="g3895"
         style="fill:#ffffff">
        <path
           inkscape:connector-curvature="0"
           id="path3897"
           style="fill:#ffffff;fill-opacity:1;fill-rule:nonzero;stroke:none"
           d="M 0,0 C 0,0.575 -0.066,1.081 -0.2,1.521 -0.335,1.962 -0.522,2.33 -0.761,2.63 -0.999,2.928 -1.286,3.151 -1.621,3.301 -1.957,3.449 -2.322,3.524 -2.718,3.524 -3.105,3.524 -3.466,3.449 -3.798,3.301 -4.129,3.151 -4.415,2.928 -4.653,2.63 -4.892,2.33 -5.078,1.962 -5.212,1.521 -5.347,1.081 -5.414,0.575 -5.414,0 c 0,-0.574 0.067,-1.08 0.202,-1.521 0.134,-0.44 0.322,-0.807 0.565,-1.102 0.243,-0.295 0.529,-0.518 0.861,-0.671 0.331,-0.152 0.695,-0.228 1.091,-0.228 0.395,0 0.758,0.076 1.086,0.228 0.327,0.153 0.61,0.376 0.848,0.671 0.239,0.295 0.426,0.662 0.561,1.102 C -0.066,-1.08 0,-0.574 0,0 M 2.741,0 C 2.741,-0.85 2.614,-1.625 2.36,-2.326 2.107,-3.027 1.744,-3.628 1.271,-4.128 0.797,-4.627 0.224,-5.013 -0.447,-5.284 c -0.671,-0.273 -1.42,-0.409 -2.248,-0.409 -0.851,0 -1.614,0.136 -2.287,0.409 -0.676,0.271 -1.248,0.657 -1.718,1.156 -0.469,0.5 -0.83,1.101 -1.08,1.802 -0.249,0.701 -0.374,1.476 -0.374,2.326 0,0.851 0.127,1.626 0.38,2.327 0.254,0.701 0.617,1.302 1.09,1.802 0.475,0.499 1.047,0.885 1.718,1.156 0.671,0.273 1.42,0.409 2.248,0.409 0.851,0 1.613,-0.136 2.288,-0.409 C 0.244,5.014 0.816,4.628 1.287,4.129 1.757,3.629 2.116,3.028 2.366,2.327 2.615,1.626 2.741,0.851 2.741,0" />
      </g>
      <g
         transform="translate(1222.721,261.55442)"
         id="g3899"
         style="fill:#ffffff">
        <path
           inkscape:connector-curvature="0"
           id="path3901"
           style="fill:#ffffff;fill-opacity:1;fill-rule:nonzero;stroke:none"
           d="M 0,0 H -0.224 C -1.036,0 -1.75,-0.121 -2.365,-0.364 -2.98,-0.606 -3.456,-0.978 -3.791,-1.477 V -8.736 H -6.443 V 2.103 h 2.192 l 0.247,-1.51 h 0.044 c 0.314,0.552 0.744,0.985 1.292,1.303 0.549,0.316 1.206,0.475 1.975,0.475 0.269,0 0.5,-0.016 0.693,-0.045 z" />
      </g>
      <g
         transform="translate(1233.6722,254.65302)"
         id="g3903"
         style="fill:#ffffff">
        <path
           inkscape:connector-curvature="0"
           id="path3905"
           style="fill:#ffffff;fill-opacity:1;fill-rule:nonzero;stroke:none"
           d="M 0,0 C 0.262,0 0.51,0.033 0.744,0.101 0.979,0.166 1.201,0.256 1.409,0.368 1.619,0.48 1.803,0.604 1.964,0.737 2.124,0.872 2.26,1.002 2.372,1.129 V 6.275 C 2.06,6.528 1.709,6.738 1.321,6.906 0.933,7.075 0.522,7.159 0.09,7.159 -0.186,7.159 -0.475,7.103 -0.777,6.991 -1.078,6.879 -1.355,6.688 -1.604,6.421 -1.854,6.151 -2.063,5.778 -2.231,5.302 -2.399,4.824 -2.483,4.216 -2.483,3.478 -2.483,2.389 -2.272,1.539 -1.851,0.927 -1.429,0.316 -0.812,0.006 0,0 m -5.224,3.366 c 0,0.947 0.131,1.792 0.392,2.533 0.261,0.744 0.617,1.365 1.068,1.87 0.451,0.502 0.968,0.878 1.55,1.128 0.581,0.25 1.186,0.375 1.813,0.375 0.29,0 0.566,-0.026 0.827,-0.078 C 0.687,9.142 0.933,9.071 1.164,8.981 1.395,8.892 1.611,8.791 1.812,8.68 2.015,8.568 2.2,8.451 2.372,8.333 H 2.395 C 2.387,8.481 2.381,8.692 2.377,8.965 2.374,9.236 2.372,9.533 2.372,9.854 v 4.507 H 5.023 V 1.387 C 5.023,0.671 5.03,0.056 5.046,-0.46 5.061,-0.974 5.075,-1.434 5.091,-1.835 H 2.696 L 2.585,-0.683 H 2.54 C 2.383,-0.87 2.195,-1.053 1.976,-1.231 1.755,-1.411 1.513,-1.565 1.248,-1.695 0.982,-1.826 0.692,-1.929 0.376,-2.003 0.059,-2.077 -0.286,-2.115 -0.659,-2.115 c -0.59,0 -1.154,0.105 -1.695,0.313 -0.542,0.208 -1.025,0.531 -1.455,0.968 -0.428,0.436 -0.771,1.006 -1.029,1.712 -0.257,0.704 -0.386,1.533 -0.386,2.488" />
      </g>
      <g
         transform="translate(1246.3001,261.85612)"
         id="g3907"
         style="fill:#ffffff">
        <path
           inkscape:connector-curvature="0"
           id="path3909"
           style="fill:#ffffff;fill-opacity:1;fill-rule:nonzero;stroke:none"
           d="m 0,0 c -0.334,0 -0.634,-0.062 -0.894,-0.185 -0.261,-0.123 -0.487,-0.291 -0.677,-0.503 -0.19,-0.212 -0.341,-0.46 -0.452,-0.745 -0.113,-0.283 -0.188,-0.584 -0.225,-0.906 h 4.263 c 0,0.322 -0.044,0.623 -0.129,0.906 C 1.8,-1.148 1.673,-0.9 1.505,-0.688 1.338,-0.476 1.129,-0.308 0.879,-0.185 0.629,-0.062 0.337,0 0,0 m 1.063,-7.182 c 0.515,0 1.052,0.052 1.612,0.157 0.558,0.105 1.125,0.254 1.7,0.448 V -8.691 C 4.032,-8.841 3.506,-8.982 2.798,-9.117 2.089,-9.251 1.354,-9.318 0.594,-9.318 c -0.768,0 -1.497,0.099 -2.188,0.297 -0.688,0.197 -1.291,0.516 -1.805,0.956 -0.516,0.439 -0.923,1.01 -1.226,1.711 -0.301,0.701 -0.452,1.551 -0.452,2.55 0,0.985 0.14,1.846 0.424,2.584 0.284,0.739 0.665,1.351 1.141,1.835 0.478,0.485 1.025,0.849 1.64,1.09 0.614,0.243 1.25,0.364 1.906,0.364 0.687,0 1.319,-0.104 1.897,-0.313 C 2.509,1.548 3.008,1.22 3.43,0.772 3.851,0.324 4.179,-0.252 4.414,-0.956 4.648,-1.661 4.766,-2.494 4.766,-3.456 4.759,-3.829 4.748,-4.146 4.732,-4.407 h -7.103 c 0.038,-0.5 0.15,-0.927 0.336,-1.28 0.186,-0.356 0.431,-0.643 0.732,-0.863 0.303,-0.221 0.655,-0.381 1.058,-0.481 0.402,-0.1 0.839,-0.151 1.308,-0.151" />
      </g>
      <path
         inkscape:connector-curvature="0"
         id="path3911"
         style="fill:#ffffff;fill-opacity:1;fill-rule:nonzero;stroke:none"
         d="m 1158.3793,243.69572 h 2.74 v -14.967 h -2.74 z" />
      <g
         transform="translate(1166.8021,238.05832)"
         id="g3913"
         style="fill:#ffffff">
        <path
           inkscape:connector-curvature="0"
           id="path3915"
           style="fill:#ffffff;fill-opacity:1;fill-rule:nonzero;stroke:none"
           d="M 0,0 H 0.045 C 0.201,0.224 0.398,0.443 0.638,0.659 0.876,0.876 1.148,1.066 1.454,1.23 1.76,1.395 2.097,1.526 2.467,1.627 2.835,1.729 3.229,1.778 3.646,1.778 4.042,1.778 4.424,1.733 4.793,1.644 5.162,1.555 5.5,1.414 5.806,1.225 6.111,1.034 6.382,0.788 6.617,0.487 6.851,0.185 7.036,-0.175 7.17,-0.593 7.244,-0.825 7.295,-1.076 7.321,-1.348 7.348,-1.62 7.36,-1.935 7.36,-2.294 V -9.329 H 4.709 v 6.622 c 0,0.29 -0.011,0.54 -0.033,0.75 -0.023,0.208 -0.065,0.391 -0.123,0.548 -0.135,0.343 -0.338,0.589 -0.61,0.737 -0.272,0.15 -0.602,0.225 -0.99,0.225 -0.515,0 -1.009,-0.122 -1.482,-0.365 C 0.997,-1.054 0.578,-1.406 0.213,-1.868 V -9.329 H -2.438 V 1.51 h 2.192 z" />
      </g>
      <g
         transform="translate(1183.8616,242.77802)"
         id="g3917"
         style="fill:#ffffff">
        <path
           inkscape:connector-curvature="0"
           id="path3919"
           style="fill:#ffffff;fill-opacity:1;fill-rule:nonzero;stroke:none"
           d="M 0,0 C -0.291,0.075 -0.592,0.137 -0.9,0.186 -1.211,0.233 -1.503,0.258 -1.779,0.258 -2.078,0.258 -2.343,0.223 -2.573,0.151 -2.805,0.081 -3,-0.036 -3.16,-0.201 -3.321,-0.365 -3.442,-0.577 -3.524,-0.839 -3.606,-1.1 -3.647,-1.417 -3.647,-1.79 v -1.42 h 3.008 v -2.182 h -3.008 v -8.657 h -2.651 v 8.657 h -1.835 v 2.182 h 1.835 v 1.287 c 0,0.761 0.106,1.415 0.319,1.963 0.212,0.547 0.508,0.999 0.889,1.353 0.381,0.354 0.827,0.616 1.342,0.783 0.515,0.168 1.074,0.252 1.678,0.252 0.373,0 0.744,-0.032 1.113,-0.095 C -0.588,2.27 -0.269,2.192 0,2.103 Z" />
      </g>
      <g
         transform="translate(1192.182,234.14232)"
         id="g3921"
         style="fill:#ffffff">
        <path
           inkscape:connector-curvature="0"
           id="path3923"
           style="fill:#ffffff;fill-opacity:1;fill-rule:nonzero;stroke:none"
           d="M 0,0 C 0,0.575 -0.065,1.081 -0.2,1.521 -0.334,1.962 -0.521,2.33 -0.76,2.63 -0.999,2.928 -1.285,3.151 -1.62,3.301 -1.956,3.449 -2.321,3.524 -2.717,3.524 -3.104,3.524 -3.466,3.449 -3.797,3.301 -4.129,3.151 -4.414,2.928 -4.653,2.63 -4.892,2.33 -5.077,1.962 -5.212,1.521 -5.347,1.081 -5.413,0.575 -5.413,0 c 0,-0.574 0.066,-1.08 0.201,-1.521 0.135,-0.44 0.322,-0.807 0.565,-1.102 0.243,-0.295 0.53,-0.518 0.861,-0.671 0.332,-0.152 0.696,-0.228 1.092,-0.228 0.395,0 0.757,0.076 1.085,0.228 0.327,0.153 0.61,0.376 0.849,0.671 0.239,0.295 0.426,0.662 0.56,1.102 C -0.065,-1.08 0,-0.574 0,0 M 2.741,0 C 2.741,-0.85 2.615,-1.625 2.36,-2.326 2.107,-3.027 1.744,-3.628 1.271,-4.128 0.797,-4.627 0.225,-5.013 -0.446,-5.284 c -0.671,-0.273 -1.421,-0.409 -2.248,-0.409 -0.851,0 -1.614,0.136 -2.288,0.409 -0.675,0.271 -1.248,0.657 -1.717,1.156 -0.47,0.5 -0.83,1.101 -1.08,1.802 -0.25,0.701 -0.374,1.476 -0.374,2.326 0,0.851 0.126,1.626 0.38,2.327 0.253,0.701 0.617,1.302 1.09,1.802 0.474,0.499 1.046,0.885 1.717,1.156 0.672,0.273 1.421,0.409 2.249,0.409 0.85,0 1.612,-0.136 2.287,-0.409 C 0.245,5.014 0.817,4.628 1.287,4.129 1.757,3.629 2.116,3.028 2.366,2.327 2.616,1.626 2.741,0.851 2.741,0" />
      </g>
      <g
         transform="translate(1203.7161,237.46552)"
         id="g3925"
         style="fill:#ffffff">
        <path
           inkscape:connector-curvature="0"
           id="path3927"
           style="fill:#ffffff;fill-opacity:1;fill-rule:nonzero;stroke:none"
           d="M 0,0 H -0.225 C -1.036,0 -1.751,-0.121 -2.366,-0.364 -2.98,-0.606 -3.457,-0.978 -3.792,-1.477 V -8.736 H -6.443 V 2.103 h 2.192 l 0.246,-1.51 h 0.045 c 0.314,0.552 0.744,0.985 1.292,1.303 0.549,0.316 1.206,0.475 1.975,0.475 0.268,0 0.499,-0.016 0.693,-0.045 z" />
      </g>
      <g
         transform="translate(1219.2425,235.32882)"
         id="g3929"
         style="fill:#ffffff">
        <path
           inkscape:connector-curvature="0"
           id="path3931"
           style="fill:#ffffff;fill-opacity:1;fill-rule:nonzero;stroke:none"
           d="m 0,0 c 0,0.231 -0.007,0.447 -0.022,0.648 -0.015,0.203 -0.041,0.377 -0.079,0.526 -0.082,0.329 -0.242,0.593 -0.481,0.795 -0.238,0.201 -0.574,0.305 -1.007,0.313 -0.23,0 -0.47,-0.034 -0.716,-0.1 C -2.55,2.114 -2.794,2.019 -3.037,1.896 -3.279,1.772 -3.511,1.623 -3.73,1.448 -3.95,1.272 -4.149,1.078 -4.329,0.861 V -6.6 H -6.98 V 0 c 0,0.231 -0.007,0.447 -0.023,0.648 -0.015,0.203 -0.04,0.377 -0.078,0.526 -0.082,0.329 -0.24,0.593 -0.476,0.795 -0.234,0.201 -0.572,0.305 -1.012,0.313 -0.231,0 -0.469,-0.034 -0.716,-0.1 -0.245,-0.068 -0.49,-0.163 -0.733,-0.286 -0.241,-0.124 -0.473,-0.273 -0.693,-0.448 -0.22,-0.176 -0.419,-0.37 -0.598,-0.587 V -6.6 H -13.96 V 4.239 h 2.191 l 0.248,-1.51 h 0.044 c 0.157,0.224 0.354,0.444 0.592,0.66 0.239,0.216 0.51,0.407 0.812,0.571 0.302,0.164 0.634,0.296 0.996,0.396 0.361,0.102 0.743,0.152 1.145,0.152 0.717,0 1.361,-0.159 1.931,-0.476 0.569,-0.317 1.005,-0.81 1.303,-1.482 h 0.045 c 0.209,0.291 0.442,0.555 0.698,0.794 0.258,0.239 0.544,0.444 0.856,0.616 0.314,0.172 0.651,0.305 1.013,0.402 0.361,0.098 0.747,0.146 1.158,0.146 C -0.152,4.5 0.498,4.338 1.023,4.021 1.549,3.704 1.953,3.271 2.237,2.718 2.312,2.577 2.376,2.422 2.427,2.254 2.479,2.086 2.522,1.897 2.556,1.688 2.59,1.48 2.614,1.249 2.629,0.995 2.644,0.742 2.651,0.45 2.651,0.122 V -6.6 H 0 Z" />
      </g>
      <g
         transform="translate(1230.9652,233.34832)"
         id="g3933"
         style="fill:#ffffff">
        <path
           inkscape:connector-curvature="0"
           id="path3935"
           style="fill:#ffffff;fill-opacity:1;fill-rule:nonzero;stroke:none"
           d="m 0,0 c -0.253,0.06 -0.545,0.114 -0.873,0.163 -0.328,0.048 -0.659,0.072 -0.994,0.072 -0.65,0 -1.162,-0.129 -1.538,-0.386 -0.378,-0.256 -0.567,-0.651 -0.567,-1.18 0,-0.246 0.044,-0.46 0.129,-0.643 0.087,-0.183 0.202,-0.334 0.348,-0.454 0.145,-0.118 0.314,-0.208 0.509,-0.267 0.193,-0.061 0.398,-0.089 0.614,-0.089 0.269,0 0.522,0.034 0.761,0.106 0.239,0.071 0.46,0.16 0.661,0.268 0.2,0.108 0.382,0.229 0.542,0.363 0.16,0.135 0.296,0.265 0.408,0.392 z M 0.213,-3.467 H 0.168 c -0.149,-0.157 -0.328,-0.317 -0.537,-0.481 -0.209,-0.164 -0.447,-0.319 -0.716,-0.464 -0.269,-0.146 -0.566,-0.264 -0.894,-0.354 -0.329,-0.088 -0.683,-0.133 -1.064,-0.133 -0.514,0 -0.995,0.08 -1.442,0.24 -0.448,0.16 -0.831,0.392 -1.153,0.694 -0.321,0.302 -0.573,0.667 -0.756,1.097 -0.182,0.429 -0.272,0.907 -0.272,1.436 0,0.582 0.105,1.104 0.317,1.567 0.213,0.463 0.51,0.853 0.89,1.174 0.381,0.321 0.836,0.565 1.365,0.733 0.53,0.167 1.115,0.251 1.756,0.251 0.471,0 0.902,-0.029 1.298,-0.089 C -0.646,2.145 -0.298,2.073 0,1.992 v 0.436 c 0,0.253 -0.043,0.497 -0.129,0.732 -0.085,0.236 -0.223,0.444 -0.413,0.626 -0.19,0.183 -0.438,0.328 -0.744,0.438 -0.306,0.107 -0.679,0.162 -1.119,0.162 -0.536,0 -1.074,-0.061 -1.611,-0.179 -0.537,-0.12 -1.118,-0.3 -1.744,-0.538 v 2.07 c 0.544,0.239 1.121,0.421 1.733,0.548 0.611,0.126 1.254,0.193 1.924,0.201 0.791,0 1.482,-0.097 2.075,-0.291 C 0.565,6.003 1.061,5.736 1.46,5.397 1.859,5.058 2.157,4.657 2.354,4.195 2.553,3.732 2.651,3.229 2.651,2.686 v -4.083 c 0,-0.716 0.007,-1.332 0.023,-1.847 0.014,-0.514 0.029,-0.974 0.045,-1.375 H 0.325 Z" />
      </g>
      <g
         transform="translate(1239.8245,228.67252)"
         id="g3937"
         style="fill:#ffffff">
        <path
           inkscape:connector-curvature="0"
           id="path3939"
           style="fill:#ffffff;fill-opacity:1;fill-rule:nonzero;stroke:none"
           d="m 0,0 c -0.552,0.149 -1.061,0.368 -1.526,0.654 -0.466,0.287 -0.868,0.652 -1.203,1.091 -0.335,0.441 -0.597,0.957 -0.783,1.55 -0.187,0.593 -0.28,1.263 -0.28,2.007 0,1.06 0.169,1.96 0.509,2.702 0.34,0.742 0.777,1.348 1.315,1.818 0.536,0.47 1.135,0.811 1.794,1.023 0.66,0.213 1.316,0.319 1.964,0.319 0.484,0 0.951,-0.044 1.398,-0.129 0.447,-0.086 0.854,-0.202 1.219,-0.352 V 8.523 C 4.079,8.666 3.73,8.779 3.362,8.865 2.992,8.95 2.596,8.994 2.17,8.994 1.745,8.994 1.339,8.931 0.951,8.804 0.563,8.678 0.222,8.47 -0.072,8.184 -0.367,7.896 -0.604,7.523 -0.783,7.064 -0.962,6.606 -1.052,6.04 -1.052,5.369 c 0,-0.476 0.067,-0.924 0.197,-1.342 0.13,-0.418 0.328,-0.779 0.592,-1.085 C 0.002,2.636 0.334,2.395 0.732,2.215 1.132,2.036 1.6,1.947 2.137,1.947 c 0.476,0 0.921,0.051 1.332,0.151 0.409,0.1 0.778,0.217 1.106,0.352 V 0.292 C 4.255,0.157 3.854,0.037 3.373,-0.067 2.892,-0.171 2.372,-0.224 1.812,-0.224 H 1.6 L 1.331,-1.264 C 1.63,-1.309 1.905,-1.381 2.159,-1.481 2.413,-1.583 2.633,-1.713 2.818,-1.874 3.006,-2.034 3.151,-2.22 3.256,-2.433 3.359,-2.646 3.412,-2.882 3.412,-3.143 3.412,-3.457 3.34,-3.749 3.194,-4.021 3.048,-4.294 2.83,-4.535 2.54,-4.748 2.248,-4.961 1.881,-5.127 1.437,-5.246 0.994,-5.365 0.496,-5.425 -0.056,-5.425 c -0.283,0 -0.576,0.021 -0.879,0.062 -0.3,0.041 -0.53,0.091 -0.687,0.151 v 1.633 c 0.202,-0.061 0.435,-0.107 0.699,-0.14 0.265,-0.033 0.51,-0.051 0.733,-0.051 0.275,0 0.516,0.023 0.721,0.068 0.205,0.045 0.365,0.102 0.476,0.174 0.112,0.07 0.19,0.146 0.234,0.228 0.045,0.083 0.068,0.165 0.068,0.246 0,0.232 -0.162,0.403 -0.487,0.515 -0.325,0.112 -0.833,0.176 -1.526,0.19 z" />
      </g>
      <g
         transform="translate(1252.8558,233.34832)"
         id="g3941"
         style="fill:#ffffff">
        <path
           inkscape:connector-curvature="0"
           id="path3943"
           style="fill:#ffffff;fill-opacity:1;fill-rule:nonzero;stroke:none"
           d="m 0,0 c -0.253,0.06 -0.544,0.114 -0.872,0.163 -0.328,0.048 -0.66,0.072 -0.995,0.072 -0.649,0 -1.161,-0.129 -1.538,-0.386 -0.377,-0.256 -0.566,-0.651 -0.566,-1.18 0,-0.246 0.044,-0.46 0.129,-0.643 0.086,-0.183 0.201,-0.334 0.347,-0.454 0.145,-0.118 0.315,-0.208 0.509,-0.267 0.194,-0.061 0.398,-0.089 0.615,-0.089 0.268,0 0.521,0.034 0.761,0.106 0.238,0.071 0.459,0.16 0.661,0.268 0.2,0.108 0.382,0.229 0.542,0.363 0.16,0.135 0.296,0.265 0.407,0.392 z m -3.512,11.108 c 0.306,0 0.596,-0.05 0.873,-0.151 0.276,-0.101 0.536,-0.214 0.784,-0.341 0.26,-0.134 0.502,-0.258 0.726,-0.369 0.223,-0.112 0.421,-0.168 0.593,-0.168 0.208,0 0.356,0.071 0.441,0.213 0.086,0.141 0.129,0.384 0.129,0.727 H 1.79 C 1.798,10.922 1.802,10.783 1.802,10.605 1.802,10.388 1.771,10.129 1.712,9.828 1.652,9.525 1.541,9.259 1.377,9.028 1.212,8.796 0.998,8.613 0.732,8.479 0.469,8.346 0.157,8.278 -0.2,8.278 c -0.291,0 -0.577,0.051 -0.856,0.151 -0.28,0.1 -0.55,0.218 -0.811,0.352 -0.277,0.142 -0.527,0.265 -0.749,0.369 -0.225,0.105 -0.411,0.157 -0.561,0.157 -0.208,0 -0.356,-0.071 -0.441,-0.212 C -3.704,8.953 -3.747,8.711 -3.747,8.367 h -1.756 c -0.007,0.151 -0.012,0.246 -0.012,0.291 0,0.321 0.029,0.621 0.084,0.901 0.057,0.28 0.168,0.541 0.336,0.783 0.168,0.242 0.385,0.43 0.649,0.564 0.264,0.135 0.576,0.202 0.934,0.202 M 0.213,-3.467 H 0.168 C 0.02,-3.624 -0.16,-3.784 -0.368,-3.948 c -0.21,-0.164 -0.448,-0.319 -0.716,-0.464 -0.269,-0.146 -0.567,-0.264 -0.895,-0.354 -0.329,-0.088 -0.682,-0.133 -1.063,-0.133 -0.515,0 -0.996,0.08 -1.443,0.24 -0.447,0.16 -0.831,0.392 -1.153,0.694 -0.32,0.302 -0.572,0.667 -0.755,1.097 -0.182,0.429 -0.273,0.907 -0.273,1.436 0,0.582 0.106,1.104 0.318,1.567 0.213,0.463 0.51,0.853 0.889,1.174 0.382,0.321 0.836,0.565 1.366,0.733 0.529,0.167 1.114,0.251 1.755,0.251 0.471,0 0.903,-0.029 1.299,-0.089 C -0.645,2.145 -0.298,2.073 0,1.992 v 0.436 c 0,0.253 -0.042,0.497 -0.129,0.732 -0.085,0.236 -0.223,0.444 -0.413,0.626 -0.19,0.183 -0.437,0.328 -0.744,0.438 -0.306,0.107 -0.679,0.162 -1.119,0.162 -0.536,0 -1.073,-0.061 -1.611,-0.179 -0.537,-0.12 -1.118,-0.3 -1.744,-0.538 v 2.07 c 0.544,0.239 1.121,0.421 1.733,0.548 0.612,0.126 1.254,0.193 1.924,0.201 0.791,0 1.483,-0.097 2.076,-0.291 C 0.566,6.003 1.062,5.736 1.46,5.397 1.859,5.058 2.158,4.657 2.354,4.195 2.553,3.732 2.651,3.229 2.651,2.686 v -4.083 c 0,-0.716 0.007,-1.332 0.023,-1.847 0.014,-0.514 0.029,-0.974 0.045,-1.375 H 0.325 Z" />
      </g>
      <g
         transform="translate(1266.0775,234.14232)"
         id="g3945"
         style="fill:#ffffff">
        <path
           inkscape:connector-curvature="0"
           id="path3947"
           style="fill:#ffffff;fill-opacity:1;fill-rule:nonzero;stroke:none"
           d="M 0,0 C 0,0.575 -0.065,1.081 -0.2,1.521 -0.335,1.962 -0.521,2.33 -0.761,2.63 -0.999,2.928 -1.286,3.151 -1.62,3.301 -1.957,3.449 -2.322,3.524 -2.717,3.524 -3.104,3.524 -3.466,3.449 -3.797,3.301 -4.129,3.151 -4.414,2.928 -4.653,2.63 -4.892,2.33 -5.077,1.962 -5.212,1.521 -5.347,1.081 -5.414,0.575 -5.414,0 c 0,-0.574 0.067,-1.08 0.202,-1.521 0.135,-0.44 0.322,-0.807 0.565,-1.102 0.243,-0.295 0.53,-0.518 0.861,-0.671 0.332,-0.152 0.696,-0.228 1.091,-0.228 0.395,0 0.758,0.076 1.086,0.228 0.327,0.153 0.61,0.376 0.848,0.671 0.24,0.295 0.426,0.662 0.561,1.102 C -0.065,-1.08 0,-0.574 0,0 M 2.741,0 C 2.741,-0.85 2.615,-1.625 2.36,-2.326 2.107,-3.027 1.744,-3.628 1.271,-4.128 0.797,-4.627 0.225,-5.013 -0.446,-5.284 c -0.671,-0.273 -1.421,-0.409 -2.249,-0.409 -0.85,0 -1.613,0.136 -2.287,0.409 -0.676,0.271 -1.248,0.657 -1.717,1.156 -0.47,0.5 -0.83,1.101 -1.08,1.802 -0.25,0.701 -0.374,1.476 -0.374,2.326 0,0.851 0.126,1.626 0.38,2.327 0.253,0.701 0.617,1.302 1.09,1.802 0.474,0.499 1.046,0.885 1.717,1.156 0.671,0.273 1.421,0.409 2.249,0.409 0.85,0 1.612,-0.136 2.287,-0.409 C 0.244,5.014 0.817,4.628 1.287,4.129 1.757,3.629 2.116,3.028 2.366,2.327 2.616,1.626 2.741,0.851 2.741,0" />
      </g>
      <g
         transform="translate(1165.6605,217.57202)"
         id="g3949"
         style="fill:#ffffff">
        <path
           inkscape:connector-curvature="0"
           id="path3951"
           style="fill:#ffffff;fill-opacity:1;fill-rule:nonzero;stroke:none"
           d="m 0,0 c -0.745,0 -1.433,-0.124 -2.063,-0.37 -0.631,-0.246 -1.171,-0.604 -1.623,-1.074 -0.451,-0.47 -0.802,-1.05 -1.057,-1.739 -0.253,-0.69 -0.38,-1.478 -0.38,-2.366 0,-0.881 0.116,-1.654 0.348,-2.321 0.23,-0.667 0.562,-1.226 0.995,-1.672 0.431,-0.448 0.96,-0.785 1.582,-1.013 0.623,-0.227 1.33,-0.341 2.121,-0.341 0.565,0 1.143,0.044 1.732,0.134 0.59,0.089 1.142,0.221 1.657,0.392 v -2.36 c -0.523,-0.151 -1.085,-0.267 -1.69,-0.353 -0.603,-0.085 -1.23,-0.129 -1.879,-0.129 -1.267,0 -2.383,0.182 -3.345,0.543 -0.961,0.361 -1.765,0.873 -2.41,1.532 -0.645,0.66 -1.13,1.45 -1.454,2.372 -0.325,0.921 -0.486,1.937 -0.486,3.048 0,1.141 0.172,2.2 0.519,3.177 0.347,0.977 0.846,1.822 1.499,2.54 0.652,0.716 1.469,1.277 2.451,1.687 0.979,0.411 2.089,0.621 3.328,0.628 0.633,0 1.233,-0.044 1.8,-0.128 C 2.211,2.1 2.722,1.979 3.177,1.822 V -0.505 C 2.581,-0.317 2.025,-0.187 1.511,-0.112 0.996,-0.038 0.493,0 0,0" />
      </g>
      <g
         transform="translate(1179.0277,210.05342)"
         id="g3953"
         style="fill:#ffffff">
        <path
           inkscape:connector-curvature="0"
           id="path3955"
           style="fill:#ffffff;fill-opacity:1;fill-rule:nonzero;stroke:none"
           d="M 0,0 C 0,0.575 -0.065,1.081 -0.2,1.521 -0.335,1.962 -0.521,2.33 -0.761,2.63 -0.999,2.928 -1.286,3.151 -1.621,3.301 -1.957,3.449 -2.322,3.524 -2.718,3.524 -3.105,3.524 -3.466,3.449 -3.797,3.301 -4.129,3.151 -4.414,2.928 -4.653,2.63 -4.892,2.33 -5.078,1.962 -5.212,1.521 -5.347,1.081 -5.414,0.575 -5.414,0 c 0,-0.574 0.067,-1.08 0.202,-1.521 0.134,-0.44 0.322,-0.807 0.565,-1.102 0.243,-0.295 0.53,-0.518 0.861,-0.671 0.332,-0.152 0.695,-0.228 1.091,-0.228 0.395,0 0.758,0.076 1.086,0.228 0.327,0.153 0.61,0.376 0.848,0.671 0.24,0.295 0.426,0.662 0.561,1.102 C -0.065,-1.08 0,-0.574 0,0 M 2.741,0 C 2.741,-0.85 2.615,-1.625 2.36,-2.326 2.107,-3.027 1.744,-3.628 1.271,-4.128 0.797,-4.627 0.225,-5.013 -0.446,-5.284 c -0.672,-0.273 -1.421,-0.409 -2.249,-0.409 -0.85,0 -1.613,0.136 -2.287,0.409 -0.676,0.271 -1.248,0.657 -1.718,1.156 -0.469,0.5 -0.83,1.101 -1.079,1.802 -0.25,0.701 -0.374,1.476 -0.374,2.326 0,0.851 0.126,1.626 0.379,2.327 0.254,0.701 0.617,1.302 1.091,1.802 0.474,0.499 1.046,0.885 1.717,1.156 0.671,0.273 1.421,0.409 2.248,0.409 0.851,0 1.613,-0.136 2.288,-0.409 C 0.244,5.014 0.816,4.628 1.287,4.129 1.757,3.629 2.116,3.028 2.366,2.327 2.616,1.626 2.741,0.851 2.741,0" />
      </g>
      <g
         transform="translate(1198.0784,211.23992)"
         id="g3957"
         style="fill:#ffffff">
        <path
           inkscape:connector-curvature="0"
           id="path3959"
           style="fill:#ffffff;fill-opacity:1;fill-rule:nonzero;stroke:none"
           d="M 0,0 C 0,0.231 -0.007,0.447 -0.022,0.648 -0.037,0.851 -0.063,1.025 -0.1,1.174 -0.183,1.503 -0.343,1.767 -0.582,1.969 -0.82,2.17 -1.156,2.274 -1.589,2.282 c -0.23,0 -0.47,-0.034 -0.716,-0.1 C -2.55,2.114 -2.794,2.019 -3.037,1.896 -3.279,1.772 -3.511,1.623 -3.73,1.448 -3.95,1.272 -4.149,1.078 -4.329,0.861 V -6.6 H -6.98 V 0 c 0,0.231 -0.007,0.447 -0.023,0.648 -0.015,0.203 -0.04,0.377 -0.078,0.526 -0.082,0.329 -0.24,0.593 -0.476,0.795 -0.234,0.201 -0.572,0.305 -1.011,0.313 -0.232,0 -0.47,-0.034 -0.716,-0.1 C -9.53,2.114 -9.775,2.019 -10.018,1.896 -10.259,1.772 -10.491,1.623 -10.711,1.448 -10.931,1.272 -11.13,1.078 -11.309,0.861 V -6.6 H -13.96 V 4.239 h 2.191 l 0.248,-1.51 h 0.044 c 0.157,0.224 0.354,0.444 0.592,0.66 0.239,0.216 0.51,0.407 0.812,0.571 0.302,0.164 0.634,0.296 0.996,0.396 0.361,0.102 0.743,0.152 1.145,0.152 0.717,0 1.361,-0.159 1.931,-0.476 0.57,-0.317 1.005,-0.81 1.303,-1.482 h 0.045 c 0.209,0.291 0.442,0.555 0.698,0.794 0.258,0.239 0.544,0.444 0.856,0.616 0.314,0.172 0.651,0.305 1.013,0.402 0.361,0.098 0.747,0.146 1.158,0.146 C -0.152,4.5 0.498,4.338 1.023,4.021 1.549,3.704 1.953,3.271 2.237,2.718 2.312,2.577 2.376,2.422 2.427,2.254 2.479,2.086 2.522,1.897 2.556,1.688 2.59,1.48 2.614,1.249 2.629,0.995 2.644,0.742 2.651,0.45 2.651,0.122 V -6.6 H 0 Z" />
      </g>
      <g
         transform="translate(1208.7171,213.62272)"
         id="g3961"
         style="fill:#ffffff">
        <path
           inkscape:connector-curvature="0"
           id="path3963"
           style="fill:#ffffff;fill-opacity:1;fill-rule:nonzero;stroke:none"
           d="m 0,0 c -0.463,-0.008 -0.903,-0.122 -1.321,-0.342 -0.418,-0.22 -0.786,-0.516 -1.107,-0.889 v -4.832 c 0.112,-0.127 0.245,-0.253 0.403,-0.38 0.156,-0.128 0.331,-0.244 0.526,-0.348 0.193,-0.104 0.407,-0.19 0.643,-0.256 0.234,-0.067 0.478,-0.1 0.732,-0.1 0.41,0 0.775,0.086 1.096,0.261 0.321,0.176 0.588,0.424 0.799,0.744 0.213,0.322 0.375,0.704 0.488,1.147 0.112,0.443 0.168,0.937 0.168,1.482 0,0.581 -0.058,1.092 -0.174,1.533 -0.115,0.44 -0.279,0.805 -0.492,1.096 -0.212,0.29 -0.468,0.511 -0.767,0.66 C 0.696,-0.075 0.364,0 0,0 m 0.346,-9.263 c -0.581,0 -1.11,0.107 -1.583,0.32 -0.474,0.213 -0.867,0.474 -1.18,0.788 h -0.045 c 0.007,-0.149 0.015,-0.36 0.023,-0.632 0.006,-0.272 0.011,-0.568 0.011,-0.889 v -4.508 h -2.651 v 16.04 h 2.326 l 0.112,-1.218 h 0.045 c 0.328,0.432 0.749,0.788 1.264,1.067 0.515,0.28 1.111,0.42 1.79,0.42 0.589,0 1.169,-0.109 1.739,-0.33 C 2.768,1.575 3.272,1.238 3.713,0.783 4.153,0.327 4.505,-0.246 4.771,-0.939 5.035,-1.633 5.167,-2.458 5.167,-3.412 5.167,-4.419 5.026,-5.289 4.742,-6.024 4.459,-6.759 4.086,-7.366 3.623,-7.847 3.161,-8.328 2.648,-8.685 2.085,-8.916 1.521,-9.146 0.942,-9.263 0.346,-9.263" />
      </g>
      <g
         transform="translate(1222.3968,209.25952)"
         id="g3965"
         style="fill:#ffffff">
        <path
           inkscape:connector-curvature="0"
           id="path3967"
           style="fill:#ffffff;fill-opacity:1;fill-rule:nonzero;stroke:none"
           d="m 0,0 c -0.253,0.06 -0.545,0.114 -0.873,0.163 -0.328,0.048 -0.659,0.072 -0.994,0.072 -0.65,0 -1.162,-0.129 -1.538,-0.386 -0.378,-0.256 -0.567,-0.651 -0.567,-1.18 0,-0.246 0.044,-0.46 0.129,-0.643 0.087,-0.183 0.202,-0.334 0.348,-0.454 0.145,-0.118 0.314,-0.208 0.509,-0.267 0.193,-0.061 0.398,-0.089 0.614,-0.089 0.269,0 0.522,0.034 0.761,0.106 0.239,0.071 0.46,0.16 0.661,0.268 0.2,0.108 0.382,0.229 0.542,0.363 0.16,0.135 0.296,0.265 0.408,0.392 z M 0.213,-3.467 H 0.168 c -0.149,-0.157 -0.328,-0.317 -0.537,-0.481 -0.209,-0.164 -0.447,-0.319 -0.716,-0.464 -0.269,-0.146 -0.566,-0.264 -0.894,-0.354 -0.329,-0.088 -0.683,-0.133 -1.064,-0.133 -0.514,0 -0.995,0.08 -1.442,0.24 -0.448,0.161 -0.831,0.392 -1.154,0.694 -0.32,0.302 -0.572,0.667 -0.755,1.097 -0.182,0.429 -0.273,0.907 -0.273,1.436 0,0.582 0.106,1.104 0.318,1.567 0.213,0.463 0.51,0.853 0.89,1.174 0.381,0.321 0.836,0.565 1.365,0.733 0.53,0.167 1.115,0.251 1.756,0.251 0.471,0 0.902,-0.029 1.298,-0.089 C -0.646,2.145 -0.298,2.073 0,1.992 v 0.436 c 0,0.253 -0.043,0.497 -0.129,0.732 -0.085,0.236 -0.223,0.444 -0.413,0.626 -0.19,0.183 -0.438,0.328 -0.744,0.438 -0.306,0.107 -0.679,0.162 -1.119,0.162 -0.536,0 -1.074,-0.061 -1.612,-0.179 -0.536,-0.12 -1.117,-0.3 -1.744,-0.538 v 2.07 c 0.545,0.239 1.122,0.421 1.734,0.548 0.611,0.126 1.254,0.193 1.924,0.201 0.791,0 1.482,-0.097 2.075,-0.291 C 0.565,6.003 1.061,5.736 1.459,5.397 1.859,5.058 2.157,4.657 2.354,4.195 2.553,3.732 2.651,3.229 2.651,2.686 v -4.083 c 0,-0.716 0.007,-1.332 0.023,-1.847 0.014,-0.514 0.029,-0.974 0.045,-1.375 H 0.324 Z" />
      </g>
      <g
         transform="translate(1234.4671,213.37662)"
         id="g3969"
         style="fill:#ffffff">
        <path
           inkscape:connector-curvature="0"
           id="path3971"
           style="fill:#ffffff;fill-opacity:1;fill-rule:nonzero;stroke:none"
           d="M 0,0 H -0.225 C -1.036,0 -1.751,-0.121 -2.366,-0.364 -2.981,-0.606 -3.457,-0.978 -3.792,-1.477 V -8.736 H -6.443 V 2.103 h 2.191 l 0.247,-1.51 h 0.045 c 0.314,0.552 0.743,0.985 1.291,1.303 0.549,0.316 1.207,0.475 1.976,0.475 0.268,0 0.499,-0.016 0.693,-0.045 z" />
      </g>
      <g
         transform="translate(1242.6556,204.65112)"
         id="g3973"
         style="fill:#ffffff">
        <path
           inkscape:connector-curvature="0"
           id="path3975"
           style="fill:#ffffff;fill-opacity:1;fill-rule:nonzero;stroke:none"
           d="m 0,0 c -0.299,-0.09 -0.654,-0.16 -1.068,-0.213 -0.414,-0.052 -0.8,-0.078 -1.158,-0.078 -0.911,0 -1.655,0.147 -2.233,0.442 -0.577,0.295 -0.985,0.717 -1.224,1.27 -0.171,0.395 -0.257,0.932 -0.257,1.61 v 5.615 h -2.025 v 2.182 h 2.025 v 3.031 h 2.651 v -3.031 h 3.132 V 8.646 H -3.289 V 3.379 c 0,-0.418 0.062,-0.728 0.19,-0.929 0.223,-0.343 0.667,-0.514 1.331,-0.514 0.306,0 0.61,0.023 0.912,0.072 0.301,0.049 0.587,0.11 0.856,0.184 z" />
      </g>
      <path
         inkscape:connector-curvature="0"
         id="path3977"
         style="fill:#ffffff;fill-opacity:1;fill-rule:nonzero;stroke:none"
         d="m 1244.7913,215.47872 h 2.652 v -10.839 h -2.652 z m -0.066,5.358 h 2.785 v -2.874 h -2.785 z" />
      <path
         inkscape:connector-curvature="0"
         id="path3979"
         style="fill:#ffffff;fill-opacity:1;fill-rule:nonzero;stroke:none"
         d="m 1250.5293,220.83672 h 2.651 v -16.196 h -2.651 z" />
      <g
         transform="translate(1258.9642,216.41862)"
         id="g3981"
         style="fill:#ffffff">
        <path
           inkscape:connector-curvature="0"
           id="path3983"
           style="fill:#ffffff;fill-opacity:1;fill-rule:nonzero;stroke:none"
           d="m 0,0 c 0,-0.559 -0.01,-1.02 -0.027,-1.381 -0.02,-0.362 -0.051,-0.687 -0.096,-0.979 h 0.045 c 0.157,0.209 0.349,0.418 0.576,0.627 0.227,0.209 0.477,0.389 0.749,0.543 0.273,0.152 0.581,0.276 0.929,0.374 0.345,0.097 0.729,0.145 1.145,0.145 0.36,0 0.707,-0.036 1.047,-0.106 0.339,-0.071 0.656,-0.181 0.951,-0.33 0.294,-0.15 0.563,-0.343 0.805,-0.582 0.242,-0.239 0.446,-0.522 0.609,-0.85 0.142,-0.283 0.247,-0.604 0.315,-0.963 0.066,-0.356 0.1,-0.794 0.1,-1.308 v -6.968 H 4.497 v 6.611 c 0,0.335 -0.015,0.609 -0.045,0.822 -0.03,0.211 -0.082,0.397 -0.157,0.553 -0.156,0.328 -0.38,0.56 -0.671,0.693 C 3.333,-2.964 3.001,-2.896 2.628,-2.896 2.114,-2.904 1.64,-3.027 1.202,-3.267 0.767,-3.505 0.365,-3.855 0,-4.317 v -7.461 H -2.651 V 4.418 H 0 Z" />
      </g>
      <g
         transform="translate(1275.1839,209.25952)"
         id="g3985"
         style="fill:#ffffff">
        <path
           inkscape:connector-curvature="0"
           id="path3987"
           style="fill:#ffffff;fill-opacity:1;fill-rule:nonzero;stroke:none"
           d="m 0,0 c -0.253,0.06 -0.544,0.114 -0.873,0.163 -0.328,0.048 -0.659,0.072 -0.994,0.072 -0.649,0 -1.162,-0.129 -1.538,-0.386 -0.378,-0.256 -0.566,-0.651 -0.566,-1.18 0,-0.246 0.043,-0.46 0.129,-0.643 0.086,-0.183 0.201,-0.334 0.347,-0.454 0.145,-0.118 0.314,-0.208 0.509,-0.267 0.193,-0.061 0.398,-0.089 0.615,-0.089 0.268,0 0.521,0.034 0.761,0.106 0.238,0.071 0.459,0.16 0.66,0.268 0.201,0.108 0.382,0.229 0.542,0.363 0.161,0.135 0.296,0.265 0.408,0.392 z M 0.213,-3.467 H 0.168 C 0.02,-3.624 -0.16,-3.784 -0.368,-3.948 c -0.21,-0.164 -0.448,-0.319 -0.716,-0.464 -0.27,-0.146 -0.567,-0.264 -0.895,-0.354 -0.329,-0.088 -0.682,-0.133 -1.063,-0.133 -0.515,0 -0.996,0.08 -1.443,0.24 -0.448,0.161 -0.831,0.392 -1.153,0.694 -0.32,0.302 -0.572,0.667 -0.755,1.097 -0.182,0.429 -0.273,0.907 -0.273,1.436 0,0.582 0.106,1.104 0.317,1.567 0.213,0.463 0.51,0.853 0.89,1.174 0.381,0.321 0.836,0.565 1.366,0.733 0.529,0.167 1.114,0.251 1.755,0.251 0.471,0 0.903,-0.029 1.299,-0.089 C -0.646,2.145 -0.298,2.073 0,1.992 v 0.436 c 0,0.253 -0.043,0.497 -0.129,0.732 -0.085,0.236 -0.223,0.444 -0.413,0.626 -0.19,0.183 -0.438,0.328 -0.744,0.438 -0.306,0.107 -0.679,0.162 -1.119,0.162 -0.536,0 -1.074,-0.061 -1.611,-0.179 -0.537,-0.12 -1.118,-0.3 -1.744,-0.538 v 2.07 c 0.544,0.239 1.121,0.421 1.733,0.548 0.612,0.126 1.254,0.193 1.924,0.201 0.791,0 1.483,-0.097 2.075,-0.291 C 0.565,6.003 1.061,5.736 1.46,5.397 1.859,5.058 2.157,4.657 2.354,4.195 2.553,3.732 2.651,3.229 2.651,2.686 v -4.083 c 0,-0.716 0.007,-1.332 0.023,-1.847 0.014,-0.514 0.029,-0.974 0.045,-1.375 H 0.325 Z" />
      </g>
      <g
         transform="translate(1285.4749,206.47532)"
         id="g3989"
         style="fill:#ffffff">
        <path
           inkscape:connector-curvature="0"
           id="path3991"
           style="fill:#ffffff;fill-opacity:1;fill-rule:nonzero;stroke:none"
           d="M 0,0 C 0.262,0 0.51,0.033 0.744,0.101 0.979,0.166 1.201,0.256 1.409,0.368 1.619,0.48 1.803,0.604 1.964,0.737 2.124,0.872 2.26,1.002 2.372,1.129 V 6.275 C 2.06,6.528 1.709,6.738 1.321,6.906 0.933,7.075 0.522,7.159 0.09,7.159 -0.186,7.159 -0.475,7.103 -0.777,6.991 -1.078,6.879 -1.355,6.688 -1.604,6.421 -1.854,6.151 -2.063,5.778 -2.231,5.302 -2.399,4.824 -2.483,4.216 -2.483,3.478 -2.483,2.389 -2.272,1.539 -1.851,0.927 -1.429,0.316 -0.812,0.006 0,0 m -5.224,3.366 c 0,0.947 0.131,1.792 0.392,2.533 0.261,0.744 0.617,1.365 1.068,1.87 0.451,0.502 0.968,0.878 1.55,1.128 0.581,0.25 1.186,0.375 1.813,0.375 0.29,0 0.566,-0.026 0.827,-0.078 C 0.687,9.142 0.933,9.071 1.164,8.981 1.395,8.892 1.611,8.791 1.812,8.68 2.015,8.568 2.2,8.451 2.372,8.333 H 2.395 C 2.387,8.481 2.381,8.692 2.377,8.965 2.374,9.236 2.372,9.533 2.372,9.854 v 4.507 H 5.023 V 1.387 C 5.023,0.671 5.03,0.056 5.046,-0.46 5.061,-0.974 5.075,-1.434 5.091,-1.835 H 2.696 L 2.585,-0.683 H 2.54 C 2.383,-0.87 2.194,-1.053 1.976,-1.231 1.755,-1.411 1.513,-1.565 1.248,-1.695 0.982,-1.826 0.692,-1.929 0.376,-2.003 0.059,-2.077 -0.286,-2.115 -0.659,-2.115 c -0.59,0 -1.154,0.105 -1.695,0.313 -0.542,0.208 -1.025,0.531 -1.455,0.968 -0.428,0.436 -0.771,1.006 -1.029,1.712 -0.257,0.704 -0.386,1.533 -0.386,2.488" />
      </g>
      <g
         transform="translate(1299.7493,209.25952)"
         id="g3993"
         style="fill:#ffffff">
        <path
           inkscape:connector-curvature="0"
           id="path3995"
           style="fill:#ffffff;fill-opacity:1;fill-rule:nonzero;stroke:none"
           d="m 0,0 c -0.254,0.06 -0.545,0.114 -0.873,0.163 -0.328,0.048 -0.66,0.072 -0.995,0.072 -0.649,0 -1.161,-0.129 -1.538,-0.386 -0.377,-0.256 -0.566,-0.651 -0.566,-1.18 0,-0.246 0.044,-0.46 0.129,-0.643 0.086,-0.183 0.202,-0.334 0.348,-0.454 0.145,-0.118 0.314,-0.208 0.508,-0.267 0.194,-0.061 0.399,-0.089 0.615,-0.089 0.268,0 0.522,0.034 0.761,0.106 0.238,0.071 0.459,0.16 0.661,0.268 0.2,0.108 0.382,0.229 0.542,0.363 0.16,0.135 0.296,0.265 0.408,0.392 z M 0.212,-3.467 H 0.168 c -0.149,-0.157 -0.328,-0.317 -0.537,-0.481 -0.209,-0.164 -0.448,-0.319 -0.716,-0.464 -0.269,-0.146 -0.566,-0.264 -0.894,-0.354 -0.329,-0.088 -0.683,-0.133 -1.064,-0.133 -0.514,0 -0.996,0.08 -1.442,0.24 -0.448,0.161 -0.832,0.392 -1.154,0.694 -0.32,0.302 -0.572,0.667 -0.755,1.097 -0.182,0.429 -0.273,0.907 -0.273,1.436 0,0.582 0.106,1.104 0.318,1.567 0.213,0.463 0.51,0.853 0.89,1.174 0.381,0.321 0.836,0.565 1.365,0.733 0.53,0.167 1.115,0.251 1.756,0.251 0.47,0 0.902,-0.029 1.298,-0.089 C -0.646,2.145 -0.299,2.073 0,1.992 v 0.436 c 0,0.253 -0.043,0.497 -0.129,0.732 -0.086,0.236 -0.224,0.444 -0.414,0.626 -0.19,0.183 -0.437,0.328 -0.743,0.438 -0.306,0.107 -0.679,0.162 -1.119,0.162 -0.537,0 -1.074,-0.061 -1.612,-0.179 -0.536,-0.12 -1.118,-0.3 -1.744,-0.538 v 2.07 c 0.545,0.239 1.121,0.421 1.734,0.548 0.611,0.126 1.253,0.193 1.923,0.201 0.792,0 1.483,-0.097 2.076,-0.291 C 0.565,6.003 1.061,5.736 1.459,5.397 1.859,5.058 2.157,4.657 2.354,4.195 2.553,3.732 2.651,3.229 2.651,2.686 v -4.083 c 0,-0.716 0.007,-1.332 0.023,-1.847 0.014,-0.514 0.028,-0.974 0.045,-1.375 H 0.324 Z" />
      </g>
    </g>
  </g>
</svg>
