<?xml version="1.0" encoding="UTF-8" standalone="no"?>
<!-- Created with Inkscape (http://www.inkscape.org/) -->

<svg
   xmlns:dc="http://purl.org/dc/elements/1.1/"
   xmlns:cc="http://creativecommons.org/ns#"
   xmlns:rdf="http://www.w3.org/1999/02/22-rdf-syntax-ns#"
   xmlns:svg="http://www.w3.org/2000/svg"
   xmlns="http://www.w3.org/2000/svg"
   xmlns:sodipodi="http://sodipodi.sourceforge.net/DTD/sodipodi-0.dtd"
   xmlns:inkscape="http://www.inkscape.org/namespaces/inkscape"
   width="622.85577mm"
   height="475.41171mm"
   viewBox="0 0 622.85578 475.41172"
   version="1.1"
   id="svg4654"
   inkscape:version="0.92.4 (5da689c313, 2019-01-14)"
   sodipodi:docname="symbol-v.svg">
  <defs
     id="defs4648" />
  <sodipodi:namedview
     id="base"
     pagecolor="#ffffff"
     bordercolor="#666666"
     borderopacity="1.0"
     inkscape:pageopacity="0.0"
     inkscape:pageshadow="2"
     inkscape:zoom="0.175"
     inkscape:cx="256.58827"
     inkscape:cy="965.7032"
     inkscape:document-units="mm"
     inkscape:current-layer="layer1"
     showgrid="false"
     inkscape:window-width="1366"
     inkscape:window-height="705"
     inkscape:window-x="-8"
     inkscape:window-y="-8"
     inkscape:window-maximized="1" />
  <metadata
     id="metadata4651">
    <rdf:RDF>
      <cc:Work
         rdf:about="">
        <dc:format>image/svg+xml</dc:format>
        <dc:type
           rdf:resource="http://purl.org/dc/dcmitype/StillImage" />
        <dc:title></dc:title>
      </cc:Work>
    </rdf:RDF>
  </metadata>
  <g
     inkscape:label="Camada 1"
     inkscape:groupmode="layer"
     id="layer1"
     transform="translate(-0.32145108,226.07787)">
    <g
       id="g4534"
       transform="matrix(2.5242474,0,0,-2.5242474,-426.82816,1130.6319)">
      <path
         d="m 313.527,426.054 h -26 v 68.708 h 26 z"
         style="fill:#231f20;fill-opacity:1;fill-rule:nonzero;stroke:none"
         id="path3737"
         inkscape:connector-curvature="0" />
      <path
         d="m 287.527,537.471 h 26 v -26 h -26 z"
         style="fill:#fbbc09;fill-opacity:1;fill-rule:nonzero;stroke:none"
         id="path3739"
         inkscape:connector-curvature="0" />
      <g
         id="g3741"
         transform="translate(397.5917,461.256)">
        <path
           d="m 0,0 c -5.413,-5.663 -13.031,-9.202 -21.465,-9.202 -16.381,0 -29.708,13.327 -29.708,29.709 0,16.381 13.327,29.708 29.708,29.708 7.948,0 15.171,-3.143 20.508,-8.244 l 18.376,18.377 c -10.047,9.807 -23.768,15.867 -38.884,15.867 -30.718,0 -55.708,-24.99 -55.708,-55.708 0,-30.717 24.99,-55.709 55.708,-55.709 15.602,0 29.718,6.456 39.841,16.826 z"
           style="fill:#231f20;fill-opacity:1;fill-rule:nonzero;stroke:none"
           id="path3743"
           inkscape:connector-curvature="0" />
      </g>
      <g
         id="g3745"
         transform="translate(224.9276,494.7628)">
        <path
           d="M 0,0 V -26 H 26.706 C 21.876,-35.883 11.721,-42.708 0,-42.708 c -16.382,0 -29.709,13.327 -29.709,29.708 0,16.381 13.327,29.708 29.709,29.708 v 26 c -30.718,0 -55.709,-24.99 -55.709,-55.708 0,-30.717 24.991,-55.708 55.709,-55.708 30.717,0 55.708,24.991 55.708,55.708 V 0 Z"
           style="fill:#231f20;fill-opacity:1;fill-rule:nonzero;stroke:none"
           id="path3747"
           inkscape:connector-curvature="0" />
      </g>
      <g
         id="g3749"
         transform="translate(296.4169,401.5499)">
        <path
           d="M 0,0 H -2.977 V 2.034 H 2.431 V -4.664 C 2.233,-4.736 1.979,-4.812 1.672,-4.892 1.364,-4.971 1.021,-5.042 0.641,-5.104 0.26,-5.168 -0.132,-5.22 -0.535,-5.259 c -0.403,-0.04 -0.804,-0.059 -1.201,-0.059 -1.191,0 -2.231,0.161 -3.12,0.481 -0.891,0.32 -1.631,0.773 -2.223,1.355 -0.592,0.581 -1.035,1.274 -1.329,2.079 -0.294,0.803 -0.442,1.69 -0.442,2.663 0,0.687 0.078,1.344 0.233,1.969 0.156,0.625 0.384,1.205 0.684,1.737 0.301,0.532 0.667,1.013 1.097,1.444 0.43,0.429 0.922,0.797 1.474,1.101 0.551,0.304 1.157,0.538 1.815,0.699 0.658,0.162 1.364,0.244 2.118,0.244 0.668,0 1.303,-0.049 1.906,-0.144 C 1.078,8.214 1.571,8.096 1.955,7.957 V 5.894 C 1.439,6.06 0.919,6.185 0.392,6.271 -0.134,6.356 -0.664,6.4 -1.2,6.4 -1.921,6.4 -2.596,6.292 -3.224,6.077 -3.853,5.862 -4.397,5.545 -4.856,5.124 -5.316,4.705 -5.678,4.187 -5.943,3.572 -6.208,2.956 -6.34,2.246 -6.34,1.438 c 0.007,-1.567 0.416,-2.743 1.231,-3.526 0.813,-0.784 1.967,-1.177 3.463,-1.177 0.277,0 0.564,0.015 0.863,0.045 0.298,0.03 0.558,0.069 0.783,0.115 z"
           style="fill:#231f20;fill-opacity:1;fill-rule:nonzero;stroke:none"
           id="path3751"
           inkscape:connector-curvature="0" />
      </g>
      <g
         id="g3753"
         transform="translate(305.535,404.4972)">
        <path
           d="m 0,0 c -0.298,0 -0.562,-0.055 -0.793,-0.164 -0.232,-0.109 -0.433,-0.258 -0.602,-0.447 -0.167,-0.188 -0.301,-0.409 -0.401,-0.66 -0.1,-0.251 -0.166,-0.518 -0.198,-0.803 h 3.78 c 0,0.285 -0.039,0.552 -0.114,0.803 C 1.596,-1.02 1.483,-0.799 1.334,-0.611 1.187,-0.422 1,-0.273 0.778,-0.164 0.557,-0.055 0.298,0 0,0 m 0.942,-6.37 c 0.456,0 0.934,0.046 1.429,0.138 0.496,0.093 0.999,0.225 1.509,0.397 V -7.709 C 3.576,-7.843 3.108,-7.968 2.48,-8.087 1.852,-8.206 1.201,-8.266 0.526,-8.266 c -0.681,0 -1.328,0.088 -1.94,0.263 -0.611,0.175 -1.146,0.458 -1.602,0.849 -0.457,0.389 -0.819,0.896 -1.087,1.518 -0.267,0.621 -0.401,1.375 -0.401,2.262 0,0.873 0.125,1.637 0.376,2.292 0.252,0.654 0.59,1.197 1.013,1.628 0.423,0.429 0.908,0.752 1.453,0.967 0.546,0.215 1.109,0.322 1.691,0.322 0.61,0 1.17,-0.092 1.683,-0.278 C 2.225,1.372 2.668,1.081 3.041,0.685 3.415,0.287 3.706,-0.224 3.914,-0.849 4.122,-1.474 4.227,-2.213 4.227,-3.066 4.221,-3.397 4.211,-3.679 4.196,-3.91 h -6.3 c 0.034,-0.443 0.133,-0.821 0.298,-1.136 0.165,-0.314 0.382,-0.569 0.65,-0.764 0.268,-0.196 0.581,-0.337 0.938,-0.427 0.357,-0.088 0.744,-0.133 1.16,-0.133"
           style="fill:#231f20;fill-opacity:1;fill-rule:nonzero;stroke:none"
           id="path3755"
           inkscape:connector-curvature="0" />
      </g>
      <g
         id="g3757"
         transform="translate(316.201,399.2677)">
        <path
           d="m 0,0 c 0,0.205 -0.058,0.374 -0.174,0.506 -0.115,0.132 -0.269,0.243 -0.461,0.333 -0.191,0.089 -0.411,0.167 -0.66,0.232 -0.248,0.067 -0.508,0.133 -0.778,0.199 -0.344,0.092 -0.675,0.2 -0.993,0.323 -0.317,0.122 -0.596,0.282 -0.837,0.481 -0.243,0.198 -0.434,0.447 -0.577,0.749 -0.142,0.301 -0.212,0.669 -0.212,1.106 0,0.537 0.094,1.001 0.287,1.394 0.191,0.394 0.452,0.719 0.778,0.978 0.328,0.258 0.709,0.45 1.142,0.575 0.433,0.126 0.891,0.188 1.375,0.188 0.588,0 1.14,-0.047 1.656,-0.143 C 1.062,6.825 1.528,6.701 1.944,6.549 V 4.634 C 1.727,4.707 1.496,4.774 1.255,4.837 1.014,4.899 0.77,4.954 0.521,5.001 0.273,5.047 0.027,5.085 -0.219,5.115 -0.463,5.146 -0.694,5.16 -0.913,5.16 -1.19,5.16 -1.426,5.133 -1.617,5.08 -1.81,5.026 -1.964,4.956 -2.084,4.867 -2.203,4.777 -2.288,4.675 -2.342,4.559 -2.395,4.443 -2.42,4.322 -2.42,4.197 -2.42,3.979 -2.362,3.801 -2.247,3.661 -2.131,3.522 -1.972,3.41 -1.766,3.324 -1.561,3.238 -1.347,3.167 -1.121,3.111 -0.896,3.055 -0.678,3 -0.466,2.947 -0.135,2.867 0.195,2.771 0.525,2.659 0.856,2.547 1.154,2.39 1.419,2.188 1.684,1.986 1.899,1.725 2.068,1.404 2.237,1.083 2.322,0.675 2.322,0.179 2.322,-0.363 2.219,-0.837 2.015,-1.24 1.81,-1.644 1.523,-1.979 1.155,-2.247 0.789,-2.515 0.349,-2.714 -0.164,-2.843 c -0.513,-0.129 -1.076,-0.193 -1.69,-0.193 -0.61,0 -1.158,0.049 -1.643,0.143 -0.486,0.097 -0.889,0.217 -1.206,0.364 v 1.894 c 0.516,-0.191 0.992,-0.323 1.43,-0.392 0.435,-0.069 0.842,-0.104 1.219,-0.104 0.291,0 0.563,0.022 0.814,0.065 0.252,0.043 0.469,0.11 0.65,0.203 0.182,0.092 0.325,0.211 0.431,0.352 C -0.053,-0.368 0,-0.198 0,0"
           style="fill:#231f20;fill-opacity:1;fill-rule:nonzero;stroke:none"
           id="path3759"
           inkscape:connector-curvature="0" />
      </g>
      <g
         id="g3761"
         transform="translate(326.4315,396.4894)">
        <path
           d="m 0,0 c -0.266,-0.079 -0.58,-0.142 -0.948,-0.188 -0.366,-0.046 -0.709,-0.07 -1.027,-0.07 -0.807,0 -1.467,0.131 -1.98,0.393 C -4.468,0.396 -4.829,0.771 -5.041,1.26 -5.192,1.611 -5.27,2.087 -5.27,2.689 V 7.67 h -1.794 v 1.934 h 1.794 v 2.689 h 2.353 V 9.604 H -0.14 V 7.67 H -2.917 V 2.997 c 0,-0.371 0.056,-0.644 0.169,-0.824 0.197,-0.304 0.591,-0.456 1.18,-0.456 0.271,0 0.541,0.021 0.809,0.064 0.267,0.043 0.521,0.098 0.759,0.163 z"
           style="fill:#231f20;fill-opacity:1;fill-rule:nonzero;stroke:none"
           id="path3763"
           inkscape:connector-curvature="0" />
      </g>
      <g
         id="g3765"
         transform="translate(335.0038,401.2814)">
        <path
           d="M 0,0 C 0,0.51 -0.06,0.959 -0.179,1.35 -0.298,1.74 -0.464,2.067 -0.675,2.332 -0.887,2.597 -1.142,2.796 -1.438,2.928 -1.736,3.06 -2.061,3.126 -2.411,3.126 -2.755,3.126 -3.075,3.06 -3.369,2.928 -3.663,2.796 -3.916,2.597 -4.128,2.332 -4.34,2.067 -4.505,1.74 -4.624,1.35 -4.743,0.959 -4.803,0.51 -4.803,0 c 0,-0.509 0.06,-0.958 0.179,-1.349 0.119,-0.39 0.286,-0.716 0.501,-0.977 0.216,-0.262 0.47,-0.459 0.764,-0.596 0.295,-0.135 0.617,-0.202 0.967,-0.202 0.352,0 0.672,0.067 0.963,0.202 0.291,0.137 0.542,0.334 0.754,0.596 0.211,0.261 0.377,0.587 0.496,0.977 C -0.06,-0.958 0,-0.509 0,0 M 2.431,0 C 2.431,-0.754 2.318,-1.441 2.093,-2.063 1.868,-2.686 1.547,-3.218 1.126,-3.661 0.706,-4.104 0.198,-4.446 -0.396,-4.687 -0.992,-4.929 -1.657,-5.05 -2.392,-5.05 c -0.754,0 -1.43,0.121 -2.028,0.363 -0.6,0.241 -1.107,0.583 -1.523,1.026 -0.416,0.443 -0.737,0.975 -0.958,1.598 -0.222,0.622 -0.332,1.309 -0.332,2.063 0,0.755 0.112,1.442 0.337,2.064 0.225,0.623 0.547,1.155 0.967,1.598 0.421,0.443 0.929,0.785 1.524,1.026 0.595,0.242 1.259,0.363 1.994,0.363 0.754,0 1.43,-0.121 2.029,-0.363 C 0.216,4.447 0.724,4.105 1.142,3.662 1.558,3.219 1.876,2.687 2.098,2.064 2.319,1.442 2.431,0.755 2.431,0"
           style="fill:#231f20;fill-opacity:1;fill-rule:nonzero;stroke:none"
           id="path3767"
           inkscape:connector-curvature="0" />
      </g>
      <g
         id="g3769"
         transform="translate(345.2333,404.2286)">
        <path
           d="M 0,0 H -0.198 C -0.919,0 -1.553,-0.107 -2.099,-0.322 -2.644,-0.537 -3.066,-0.866 -3.363,-1.31 v -6.439 h -2.352 v 9.614 h 1.944 l 0.219,-1.339 h 0.04 c 0.278,0.49 0.659,0.874 1.146,1.156 0.486,0.281 1.069,0.422 1.751,0.422 0.239,0 0.443,-0.014 0.615,-0.04 z"
           style="fill:#231f20;fill-opacity:1;fill-rule:nonzero;stroke:none"
           id="path3771"
           inkscape:connector-curvature="0" />
      </g>
      <g
         id="g3773"
         transform="translate(354.9471,398.1075)">
        <path
           d="m 0,0 c 0.231,0 0.452,0.029 0.66,0.089 0.208,0.058 0.405,0.139 0.59,0.237 0.186,0.1 0.349,0.209 0.492,0.328 0.142,0.119 0.262,0.235 0.362,0.347 V 5.566 C 1.826,5.79 1.516,5.978 1.172,6.126 0.826,6.275 0.463,6.35 0.079,6.35 -0.165,6.35 -0.421,6.3 -0.689,6.201 -0.957,6.102 -1.202,5.933 -1.424,5.695 -1.646,5.457 -1.83,5.126 -1.979,4.702 -2.128,4.279 -2.203,3.739 -2.203,3.085 c 0,-0.966 0.187,-1.72 0.561,-2.263 C -1.268,0.281 -0.721,0.006 0,0 m -4.633,2.985 c 0,0.841 0.115,1.59 0.347,2.248 0.231,0.659 0.547,1.21 0.947,1.658 0.401,0.446 0.859,0.78 1.374,1.001 0.517,0.221 1.053,0.333 1.609,0.333 0.256,0 0.502,-0.024 0.734,-0.07 C 0.609,8.108 0.826,8.046 1.032,7.967 1.237,7.887 1.429,7.798 1.607,7.699 1.786,7.6 1.951,7.496 2.104,7.392 H 2.123 C 2.116,7.523 2.111,7.71 2.108,7.951 2.105,8.193 2.104,8.456 2.104,8.74 v 3.999 H 4.455 V 1.229 c 0,-0.634 0.006,-1.179 0.021,-1.636 0.012,-0.456 0.025,-0.864 0.039,-1.221 H 2.392 l -0.1,1.023 H 2.253 C 2.113,-0.771 1.946,-0.934 1.752,-1.092 1.556,-1.251 1.342,-1.389 1.106,-1.504 0.871,-1.62 0.614,-1.71 0.333,-1.777 0.052,-1.843 -0.255,-1.876 -0.585,-1.876 c -0.523,0 -1.023,0.093 -1.504,0.278 -0.479,0.185 -0.909,0.471 -1.289,0.859 -0.381,0.386 -0.684,0.891 -0.913,1.517 -0.228,0.625 -0.342,1.361 -0.342,2.207"
           style="fill:#231f20;fill-opacity:1;fill-rule:nonzero;stroke:none"
           id="path3775"
           inkscape:connector-curvature="0" />
      </g>
      <g
         id="g3777"
         transform="translate(366.1483,404.4972)">
        <path
           d="m 0,0 c -0.297,0 -0.562,-0.055 -0.793,-0.164 -0.232,-0.109 -0.433,-0.258 -0.602,-0.447 -0.167,-0.188 -0.301,-0.409 -0.401,-0.66 -0.1,-0.251 -0.166,-0.518 -0.198,-0.803 h 3.78 c 0,0.285 -0.038,0.552 -0.114,0.803 C 1.596,-1.02 1.483,-0.799 1.334,-0.611 1.187,-0.422 1,-0.273 0.778,-0.164 0.558,-0.055 0.298,0 0,0 m 0.942,-6.37 c 0.456,0 0.934,0.046 1.429,0.138 0.496,0.093 0.999,0.225 1.509,0.397 V -7.709 C 3.576,-7.843 3.108,-7.968 2.48,-8.087 1.852,-8.206 1.201,-8.266 0.526,-8.266 c -0.681,0 -1.328,0.088 -1.94,0.263 -0.611,0.175 -1.146,0.458 -1.602,0.849 -0.457,0.389 -0.819,0.896 -1.087,1.518 -0.267,0.621 -0.401,1.375 -0.401,2.262 0,0.873 0.125,1.637 0.376,2.292 0.252,0.654 0.59,1.197 1.013,1.628 0.423,0.429 0.908,0.752 1.454,0.967 0.545,0.215 1.108,0.322 1.69,0.322 0.61,0 1.17,-0.092 1.683,-0.278 C 2.225,1.372 2.668,1.081 3.041,0.685 3.415,0.287 3.706,-0.224 3.915,-0.849 4.122,-1.474 4.227,-2.213 4.227,-3.066 4.221,-3.397 4.211,-3.679 4.197,-3.91 h -6.301 c 0.034,-0.443 0.133,-0.821 0.298,-1.136 0.165,-0.314 0.382,-0.569 0.65,-0.764 0.268,-0.196 0.581,-0.337 0.938,-0.427 0.357,-0.088 0.744,-0.133 1.16,-0.133"
           style="fill:#231f20;fill-opacity:1;fill-rule:nonzero;stroke:none"
           id="path3779"
           inkscape:connector-curvature="0" />
      </g>
      <path
         d="m 288.162,388.389 h 2.431 v -13.275 h -2.431 z"
         style="fill:#231f20;fill-opacity:1;fill-rule:nonzero;stroke:none"
         id="path3781"
         inkscape:connector-curvature="0" />
      <g
         id="g3783"
         transform="translate(295.6337,383.3878)">
        <path
           d="m 0,0 h 0.039 c 0.14,0.199 0.315,0.394 0.526,0.585 0.211,0.192 0.454,0.361 0.724,0.507 0.272,0.145 0.57,0.262 0.899,0.351 0.327,0.09 0.676,0.135 1.046,0.135 0.351,0 0.69,-0.04 1.017,-0.119 C 4.578,1.379 4.878,1.255 5.149,1.087 5.421,0.918 5.66,0.699 5.869,0.433 6.076,0.164 6.24,-0.155 6.359,-0.525 6.426,-0.731 6.47,-0.954 6.494,-1.195 6.517,-1.437 6.528,-1.716 6.528,-2.034 v -6.24 H 4.177 V -2.4 c 0,0.256 -0.01,0.478 -0.03,0.665 -0.02,0.184 -0.056,0.346 -0.109,0.485 -0.119,0.304 -0.3,0.522 -0.541,0.655 -0.241,0.132 -0.534,0.199 -0.878,0.199 -0.456,0 -0.894,-0.109 -1.314,-0.324 C 0.884,-0.934 0.513,-1.247 0.188,-1.656 V -8.274 H -2.163 V 1.34 h 1.944 z"
           style="fill:#231f20;fill-opacity:1;fill-rule:nonzero;stroke:none"
           id="path3785"
           inkscape:connector-curvature="0" />
      </g>
      <g
         id="g3787"
         transform="translate(310.7655,387.5753)">
        <path
           d="m 0,0 c -0.259,0.066 -0.525,0.121 -0.799,0.164 -0.275,0.042 -0.535,0.065 -0.779,0.065 -0.266,0 -0.5,-0.033 -0.705,-0.095 -0.205,-0.063 -0.378,-0.167 -0.521,-0.314 -0.142,-0.144 -0.25,-0.333 -0.322,-0.564 -0.073,-0.233 -0.109,-0.513 -0.109,-0.844 v -1.26 h 2.669 v -1.934 h -2.669 v -7.68 h -2.352 v 7.68 h -1.627 v 1.934 h 1.627 v 1.142 c 0,0.675 0.094,1.255 0.282,1.74 0.19,0.487 0.451,0.887 0.789,1.2 0.338,0.315 0.735,0.547 1.191,0.696 0.457,0.148 0.953,0.222 1.488,0.222 0.331,0 0.66,-0.027 0.988,-0.084 C -0.522,2.013 -0.239,1.944 0,1.864 Z"
           style="fill:#231f20;fill-opacity:1;fill-rule:nonzero;stroke:none"
           id="path3789"
           inkscape:connector-curvature="0" />
      </g>
      <g
         id="g3791"
         transform="translate(318.1454,379.9152)">
        <path
           d="M 0,0 C 0,0.51 -0.059,0.959 -0.178,1.35 -0.297,1.74 -0.463,2.066 -0.675,2.332 -0.886,2.597 -1.141,2.795 -1.437,2.927 -1.735,3.06 -2.06,3.126 -2.41,3.126 -2.754,3.126 -3.074,3.06 -3.368,2.927 -3.662,2.795 -3.916,2.597 -4.127,2.332 -4.339,2.066 -4.504,1.74 -4.623,1.35 -4.742,0.959 -4.802,0.51 -4.802,0 c 0,-0.51 0.06,-0.959 0.179,-1.35 0.119,-0.39 0.286,-0.715 0.501,-0.977 0.216,-0.261 0.47,-0.459 0.764,-0.595 0.294,-0.136 0.617,-0.203 0.967,-0.203 0.351,0 0.672,0.067 0.963,0.203 0.29,0.136 0.542,0.334 0.753,0.595 0.212,0.262 0.378,0.587 0.497,0.977 C -0.059,-0.959 0,-0.51 0,0 m 2.432,0 c 0,-0.754 -0.113,-1.441 -0.338,-2.063 -0.225,-0.623 -0.547,-1.156 -0.967,-1.598 -0.42,-0.443 -0.928,-0.785 -1.523,-1.026 -0.595,-0.243 -1.26,-0.364 -1.995,-0.364 -0.754,0 -1.43,0.121 -2.028,0.364 -0.6,0.241 -1.107,0.583 -1.523,1.026 -0.416,0.442 -0.737,0.975 -0.958,1.598 -0.222,0.622 -0.332,1.309 -0.332,2.063 0,0.754 0.112,1.441 0.336,2.063 0.226,0.623 0.548,1.156 0.968,1.598 0.421,0.443 0.928,0.785 1.524,1.026 0.594,0.243 1.259,0.364 1.994,0.364 0.754,0 1.43,-0.121 2.029,-0.364 C 0.217,4.446 0.725,4.104 1.142,3.661 1.559,3.219 1.877,2.686 2.099,2.063 2.32,1.441 2.432,0.754 2.432,0"
           style="fill:#231f20;fill-opacity:1;fill-rule:nonzero;stroke:none"
           id="path3793"
           inkscape:connector-curvature="0" />
      </g>
      <g
         id="g3795"
         transform="translate(328.3759,382.8624)">
        <path
           d="M 0,0 H -0.198 C -0.919,0 -1.553,-0.107 -2.099,-0.323 -2.644,-0.538 -3.066,-0.866 -3.363,-1.31 v -6.439 h -2.352 v 9.614 h 1.944 l 0.219,-1.34 h 0.039 c 0.279,0.491 0.66,0.874 1.146,1.156 0.487,0.281 1.07,0.423 1.752,0.423 0.238,0 0.443,-0.014 0.615,-0.041 z"
           style="fill:#231f20;fill-opacity:1;fill-rule:nonzero;stroke:none"
           id="path3797"
           inkscape:connector-curvature="0" />
      </g>
      <g
         id="g3799"
         transform="translate(342.1473,380.9679)">
        <path
           d="M 0,0 C 0,0.204 -0.006,0.396 -0.02,0.575 -0.033,0.754 -0.056,0.909 -0.089,1.041 -0.162,1.332 -0.304,1.566 -0.516,1.745 -0.728,1.924 -1.025,2.017 -1.409,2.023 -1.613,2.023 -1.825,1.994 -2.044,1.935 -2.262,1.874 -2.479,1.79 -2.693,1.681 -2.908,1.571 -3.114,1.439 -3.309,1.284 -3.504,1.128 -3.681,0.955 -3.839,0.764 V -5.854 H -6.191 V 0 c 0,0.204 -0.006,0.396 -0.02,0.575 C -6.224,0.754 -6.247,0.909 -6.28,1.041 -6.354,1.332 -6.493,1.566 -6.702,1.745 -6.91,1.924 -7.21,2.017 -7.601,2.023 -7.805,2.023 -8.017,1.994 -8.235,1.935 -8.452,1.874 -8.67,1.79 -8.885,1.681 -9.1,1.571 -9.305,1.439 -9.5,1.284 -9.694,1.128 -9.871,0.955 -10.03,0.764 v -6.618 h -2.353 V 3.76 h 1.945 l 0.218,-1.34 h 0.04 c 0.14,0.199 0.315,0.393 0.526,0.585 0.212,0.192 0.452,0.361 0.719,0.507 0.269,0.145 0.563,0.262 0.884,0.351 0.321,0.09 0.659,0.135 1.016,0.135 0.637,0 1.207,-0.142 1.713,-0.423 0.505,-0.281 0.89,-0.718 1.155,-1.314 h 0.04 c 0.186,0.259 0.392,0.493 0.619,0.705 0.229,0.211 0.483,0.393 0.76,0.546 0.278,0.152 0.577,0.27 0.898,0.357 0.321,0.086 0.663,0.129 1.028,0.129 C -0.135,3.991 0.442,3.847 0.908,3.565 1.374,3.284 1.732,2.899 1.985,2.41 2.051,2.285 2.107,2.147 2.153,1.999 2.2,1.85 2.237,1.683 2.268,1.497 2.297,1.312 2.319,1.107 2.332,0.882 2.345,0.657 2.352,0.399 2.352,0.107 V -5.854 H 0 Z"
           style="fill:#231f20;fill-opacity:1;fill-rule:nonzero;stroke:none"
           id="path3801"
           inkscape:connector-curvature="0" />
      </g>
      <g
         id="g3803"
         transform="translate(352.5458,379.2111)">
        <path
           d="m 0,0 c -0.225,0.053 -0.483,0.101 -0.774,0.144 -0.291,0.043 -0.585,0.064 -0.882,0.064 -0.575,0 -1.031,-0.114 -1.365,-0.343 -0.334,-0.227 -0.501,-0.577 -0.501,-1.046 0,-0.218 0.039,-0.408 0.114,-0.57 0.076,-0.163 0.179,-0.296 0.307,-0.402 0.13,-0.106 0.28,-0.185 0.452,-0.238 0.171,-0.053 0.353,-0.08 0.545,-0.08 0.239,0 0.463,0.032 0.675,0.095 0.211,0.063 0.408,0.142 0.586,0.237 0.178,0.097 0.339,0.204 0.481,0.324 0.142,0.119 0.262,0.234 0.362,0.346 z m 0.188,-3.075 h -0.04 c -0.131,-0.14 -0.291,-0.281 -0.475,-0.428 -0.186,-0.144 -0.398,-0.282 -0.635,-0.411 -0.238,-0.129 -0.503,-0.233 -0.794,-0.314 -0.291,-0.079 -0.605,-0.119 -0.943,-0.119 -0.456,0 -0.883,0.073 -1.28,0.214 -0.396,0.143 -0.737,0.348 -1.022,0.615 -0.284,0.269 -0.508,0.592 -0.67,0.973 -0.162,0.381 -0.242,0.805 -0.242,1.274 0,0.516 0.095,0.98 0.282,1.39 0.189,0.41 0.452,0.757 0.789,1.041 0.338,0.285 0.741,0.502 1.211,0.651 0.469,0.148 0.988,0.222 1.557,0.222 0.418,0 0.801,-0.025 1.152,-0.079 C -0.572,1.901 -0.265,1.839 0,1.767 V 2.152 C 0,2.377 -0.038,2.594 -0.114,2.803 -0.19,3.012 -0.312,3.196 -0.481,3.358 -0.65,3.521 -0.87,3.649 -1.141,3.745 -1.412,3.841 -1.743,3.89 -2.134,3.89 -2.609,3.89 -3.085,3.836 -3.563,3.73 -4.038,3.624 -4.554,3.466 -5.109,3.254 V 5.09 c 0.482,0.212 0.994,0.374 1.537,0.486 0.543,0.112 1.112,0.172 1.707,0.179 0.701,0 1.314,-0.087 1.84,-0.259 C 0.502,5.324 0.94,5.088 1.295,4.787 1.649,4.485 1.913,4.13 2.088,3.721 2.265,3.311 2.352,2.864 2.352,2.382 V -1.24 c 0,-0.635 0.005,-1.181 0.019,-1.638 0.014,-0.456 0.026,-0.863 0.04,-1.22 H 0.288 Z"
           style="fill:#231f20;fill-opacity:1;fill-rule:nonzero;stroke:none"
           id="path3805"
           inkscape:connector-curvature="0" />
      </g>
      <g
         id="g3807"
         transform="translate(360.4042,375.0636)">
        <path
           d="m 0,0 c -0.49,0.132 -0.941,0.326 -1.354,0.58 -0.414,0.254 -0.769,0.577 -1.067,0.968 -0.298,0.39 -0.529,0.848 -0.694,1.374 -0.166,0.525 -0.248,1.12 -0.248,1.78 0,0.941 0.149,1.738 0.451,2.398 0.301,0.657 0.689,1.195 1.166,1.612 0.476,0.416 1.007,0.72 1.592,0.907 0.585,0.189 1.167,0.283 1.742,0.283 0.429,0 0.844,-0.039 1.24,-0.114 C 3.225,9.711 3.585,9.608 3.909,9.475 V 7.561 C 3.617,7.687 3.309,7.787 2.981,7.863 2.653,7.938 2.302,7.978 1.925,7.978 1.548,7.978 1.187,7.921 0.844,7.809 0.5,7.696 0.196,7.513 -0.064,7.258 -0.326,7.003 -0.536,6.673 -0.694,6.266 c -0.16,-0.407 -0.24,-0.909 -0.24,-1.504 0,-0.423 0.059,-0.82 0.175,-1.19 C -0.643,3.201 -0.468,2.88 -0.233,2.609 0.002,2.338 0.296,2.123 0.649,1.964 1.003,1.806 1.419,1.727 1.895,1.727 c 0.423,0 0.817,0.044 1.181,0.132 0.363,0.09 0.691,0.195 0.982,0.314 V 0.258 C 3.773,0.139 3.418,0.032 2.991,-0.06 2.564,-0.152 2.104,-0.199 1.607,-0.199 H 1.419 L 1.181,-1.121 C 1.445,-1.161 1.69,-1.226 1.914,-1.314 2.14,-1.404 2.335,-1.52 2.5,-1.662 2.666,-1.805 2.795,-1.97 2.888,-2.158 2.979,-2.347 3.026,-2.557 3.026,-2.788 3.026,-3.066 2.962,-3.326 2.833,-3.567 2.703,-3.809 2.51,-4.023 2.252,-4.212 1.994,-4.401 1.668,-4.548 1.274,-4.653 0.881,-4.76 0.44,-4.812 -0.05,-4.812 c -0.251,0 -0.511,0.018 -0.779,0.054 -0.267,0.037 -0.471,0.081 -0.609,0.135 v 1.448 c 0.178,-0.054 0.384,-0.095 0.619,-0.124 0.235,-0.03 0.452,-0.045 0.65,-0.045 0.244,0 0.458,0.02 0.64,0.06 0.181,0.04 0.323,0.091 0.423,0.154 0.098,0.063 0.168,0.13 0.207,0.202 0.04,0.074 0.059,0.147 0.059,0.219 0,0.205 -0.142,0.356 -0.431,0.456 -0.288,0.1 -0.739,0.156 -1.354,0.169 z"
           style="fill:#231f20;fill-opacity:1;fill-rule:nonzero;stroke:none"
           id="path3809"
           inkscape:connector-curvature="0" />
      </g>
      <g
         id="g3811"
         transform="translate(371.9628,379.2111)">
        <path
           d="m 0,0 c -0.225,0.053 -0.483,0.101 -0.774,0.144 -0.291,0.043 -0.585,0.064 -0.882,0.064 -0.575,0 -1.031,-0.114 -1.365,-0.343 -0.334,-0.227 -0.501,-0.577 -0.501,-1.046 0,-0.218 0.039,-0.408 0.114,-0.57 0.076,-0.163 0.179,-0.296 0.307,-0.402 0.13,-0.106 0.28,-0.185 0.452,-0.238 0.171,-0.053 0.354,-0.08 0.545,-0.08 0.239,0 0.463,0.032 0.675,0.095 0.212,0.063 0.408,0.142 0.586,0.237 0.178,0.097 0.339,0.204 0.482,0.324 0.141,0.119 0.261,0.234 0.361,0.346 z m -3.115,9.853 c 0.271,0 0.529,-0.045 0.774,-0.135 0.244,-0.089 0.476,-0.19 0.695,-0.302 0.231,-0.119 0.446,-0.228 0.644,-0.328 0.198,-0.099 0.374,-0.149 0.526,-0.149 0.185,0 0.316,0.064 0.391,0.189 0.077,0.125 0.114,0.341 0.114,0.644 H 1.588 C 1.595,9.688 1.598,9.564 1.598,9.406 1.598,9.214 1.571,8.984 1.519,8.717 1.466,8.448 1.366,8.212 1.221,8.007 1.075,7.802 0.886,7.64 0.649,7.521 0.415,7.402 0.139,7.343 -0.178,7.343 c -0.259,0 -0.511,0.044 -0.759,0.133 -0.249,0.089 -0.488,0.193 -0.719,0.313 -0.245,0.125 -0.467,0.234 -0.665,0.326 -0.199,0.094 -0.365,0.14 -0.497,0.14 -0.185,0 -0.316,-0.063 -0.391,-0.189 C -3.286,7.94 -3.323,7.726 -3.323,7.421 h -1.559 c -0.006,0.133 -0.01,0.219 -0.01,0.259 0,0.284 0.025,0.549 0.075,0.799 0.049,0.248 0.149,0.479 0.298,0.694 0.149,0.215 0.341,0.382 0.576,0.501 0.234,0.119 0.51,0.179 0.828,0.179 M 0.188,-3.075 H 0.149 c -0.132,-0.14 -0.292,-0.281 -0.476,-0.428 -0.186,-0.144 -0.398,-0.282 -0.635,-0.411 -0.238,-0.129 -0.503,-0.233 -0.794,-0.314 -0.291,-0.079 -0.605,-0.119 -0.942,-0.119 -0.456,0 -0.884,0.073 -1.281,0.214 -0.396,0.143 -0.737,0.348 -1.022,0.615 -0.284,0.269 -0.508,0.592 -0.67,0.973 -0.162,0.381 -0.242,0.805 -0.242,1.274 0,0.516 0.095,0.98 0.282,1.39 0.189,0.41 0.452,0.757 0.789,1.041 0.338,0.285 0.741,0.502 1.211,0.651 0.469,0.148 0.989,0.222 1.558,0.222 0.417,0 0.801,-0.025 1.151,-0.079 C -0.572,1.901 -0.265,1.839 0,1.767 V 2.152 C 0,2.377 -0.038,2.594 -0.114,2.803 -0.189,3.012 -0.312,3.196 -0.48,3.358 -0.649,3.521 -0.869,3.649 -1.141,3.745 -1.412,3.841 -1.743,3.89 -2.134,3.89 -2.609,3.89 -3.085,3.836 -3.563,3.73 -4.038,3.624 -4.554,3.466 -5.109,3.254 V 5.09 c 0.483,0.212 0.995,0.374 1.537,0.486 0.543,0.112 1.112,0.172 1.707,0.179 0.702,0 1.314,-0.087 1.841,-0.259 C 0.502,5.324 0.941,5.088 1.295,4.787 1.649,4.485 1.914,4.13 2.089,3.721 2.265,3.311 2.352,2.864 2.352,2.382 V -1.24 c 0,-0.635 0.005,-1.181 0.02,-1.638 0.013,-0.456 0.025,-0.863 0.039,-1.22 H 0.288 Z"
           style="fill:#231f20;fill-opacity:1;fill-rule:nonzero;stroke:none"
           id="path3813"
           inkscape:connector-curvature="0" />
      </g>
      <g
         id="g3815"
         transform="translate(383.6903,379.9152)">
        <path
           d="M 0,0 C 0,0.51 -0.059,0.959 -0.178,1.35 -0.297,1.74 -0.463,2.066 -0.675,2.332 -0.887,2.597 -1.141,2.795 -1.437,2.927 -1.735,3.06 -2.06,3.126 -2.41,3.126 -2.754,3.126 -3.074,3.06 -3.368,2.927 -3.662,2.795 -3.916,2.597 -4.127,2.332 -4.339,2.066 -4.504,1.74 -4.623,1.35 -4.742,0.959 -4.802,0.51 -4.802,0 c 0,-0.51 0.06,-0.959 0.179,-1.35 0.119,-0.39 0.286,-0.715 0.501,-0.977 0.215,-0.261 0.47,-0.459 0.764,-0.595 0.294,-0.136 0.617,-0.203 0.967,-0.203 0.351,0 0.672,0.067 0.963,0.203 0.29,0.136 0.541,0.334 0.753,0.595 0.212,0.262 0.378,0.587 0.497,0.977 C -0.059,-0.959 0,-0.51 0,0 M 2.432,0 C 2.432,-0.754 2.319,-1.441 2.094,-2.063 1.869,-2.686 1.547,-3.219 1.127,-3.661 0.706,-4.104 0.199,-4.446 -0.396,-4.687 c -0.595,-0.243 -1.26,-0.364 -1.995,-0.364 -0.754,0 -1.43,0.121 -2.029,0.364 -0.599,0.241 -1.106,0.583 -1.522,1.026 -0.417,0.442 -0.737,0.975 -0.958,1.598 -0.222,0.622 -0.332,1.309 -0.332,2.063 0,0.754 0.112,1.441 0.336,2.063 0.226,0.623 0.547,1.156 0.968,1.598 0.42,0.443 0.928,0.785 1.524,1.026 0.594,0.243 1.259,0.364 1.994,0.364 0.754,0 1.43,-0.121 2.028,-0.364 C 0.217,4.446 0.725,4.104 1.142,3.661 1.558,3.219 1.877,2.686 2.099,2.063 2.32,1.441 2.432,0.754 2.432,0"
           style="fill:#231f20;fill-opacity:1;fill-rule:nonzero;stroke:none"
           id="path3817"
           inkscape:connector-curvature="0" />
      </g>
      <g
         id="g3819"
         transform="translate(294.621,365.2169)">
        <path
           d="m 0,0 c -0.661,0 -1.271,-0.109 -1.83,-0.328 -0.56,-0.219 -1.039,-0.535 -1.44,-0.953 -0.4,-0.416 -0.711,-0.931 -0.937,-1.542 -0.225,-0.613 -0.337,-1.312 -0.337,-2.099 0,-0.78 0.103,-1.468 0.308,-2.058 0.205,-0.592 0.499,-1.087 0.882,-1.484 0.384,-0.397 0.852,-0.696 1.405,-0.898 0.552,-0.201 1.178,-0.303 1.881,-0.303 0.502,0 1.014,0.04 1.537,0.119 0.522,0.079 1.011,0.195 1.469,0.348 v -2.094 c -0.464,-0.133 -0.962,-0.236 -1.5,-0.312 -0.535,-0.076 -1.09,-0.115 -1.666,-0.115 -1.125,0 -2.113,0.161 -2.966,0.482 -0.854,0.32 -1.567,0.774 -2.139,1.359 -0.572,0.585 -1.001,1.286 -1.289,2.104 -0.289,0.817 -0.432,1.717 -0.432,2.704 0,1.01 0.154,1.951 0.461,2.817 0.307,0.866 0.75,1.617 1.329,2.253 0.579,0.635 1.303,1.134 2.174,1.497 0.869,0.363 1.854,0.55 2.951,0.557 0.562,0 1.095,-0.039 1.598,-0.115 C 1.961,1.862 2.414,1.756 2.817,1.616 V -0.447 C 2.289,-0.281 1.796,-0.166 1.34,-0.1 0.883,-0.034 0.437,0 0,0"
           style="fill:#231f20;fill-opacity:1;fill-rule:nonzero;stroke:none"
           id="path3821"
           inkscape:connector-curvature="0" />
      </g>
      <g
         id="g3823"
         transform="translate(306.4774,358.549)">
        <path
           d="M 0,0 C 0,0.51 -0.059,0.958 -0.178,1.349 -0.297,1.739 -0.463,2.066 -0.675,2.332 -0.886,2.596 -1.141,2.795 -1.437,2.927 -1.735,3.059 -2.06,3.126 -2.41,3.126 -2.754,3.126 -3.074,3.059 -3.368,2.927 -3.662,2.795 -3.916,2.596 -4.127,2.332 -4.339,2.066 -4.504,1.739 -4.623,1.349 -4.742,0.958 -4.802,0.51 -4.802,0 c 0,-0.51 0.06,-0.959 0.179,-1.35 0.119,-0.39 0.286,-0.716 0.501,-0.977 0.216,-0.262 0.47,-0.459 0.764,-0.596 0.294,-0.135 0.617,-0.202 0.967,-0.202 0.351,0 0.672,0.067 0.963,0.202 0.29,0.137 0.542,0.334 0.753,0.596 0.212,0.261 0.378,0.587 0.497,0.977 C -0.059,-0.959 0,-0.51 0,0 m 2.432,0 c 0,-0.755 -0.113,-1.442 -0.338,-2.064 -0.225,-0.623 -0.547,-1.155 -0.967,-1.598 -0.42,-0.443 -0.928,-0.785 -1.523,-1.026 -0.595,-0.242 -1.26,-0.363 -1.995,-0.363 -0.754,0 -1.43,0.121 -2.028,0.363 -0.6,0.241 -1.107,0.583 -1.523,1.026 -0.416,0.443 -0.737,0.975 -0.958,1.598 -0.222,0.622 -0.332,1.309 -0.332,2.064 0,0.754 0.112,1.441 0.336,2.063 0.226,0.623 0.548,1.155 0.968,1.598 0.42,0.443 0.928,0.785 1.524,1.026 0.594,0.242 1.259,0.363 1.994,0.363 0.754,0 1.43,-0.121 2.029,-0.363 C 0.217,4.446 0.725,4.104 1.142,3.661 1.559,3.218 1.877,2.686 2.099,2.063 2.32,1.441 2.432,0.754 2.432,0"
           style="fill:#231f20;fill-opacity:1;fill-rule:nonzero;stroke:none"
           id="path3825"
           inkscape:connector-curvature="0" />
      </g>
      <g
         id="g3827"
         transform="translate(323.3749,359.6007)">
        <path
           d="m 0,0 c 0,0.205 -0.006,0.396 -0.02,0.575 -0.012,0.179 -0.036,0.334 -0.068,0.466 -0.074,0.291 -0.216,0.526 -0.428,0.705 -0.212,0.179 -0.509,0.272 -0.893,0.278 -0.204,0 -0.416,-0.03 -0.635,-0.089 C -2.262,1.875 -2.478,1.791 -2.693,1.682 -2.908,1.572 -3.114,1.439 -3.309,1.285 -3.503,1.129 -3.68,0.956 -3.839,0.764 V -5.854 H -6.191 V 0 c 0,0.205 -0.006,0.396 -0.02,0.575 C -6.224,0.754 -6.247,0.909 -6.28,1.041 -6.353,1.332 -6.493,1.567 -6.702,1.746 -6.91,1.925 -7.21,2.018 -7.6,2.024 -7.805,2.024 -8.017,1.994 -8.235,1.935 -8.452,1.875 -8.67,1.791 -8.885,1.682 -9.1,1.572 -9.305,1.439 -9.5,1.285 -9.694,1.129 -9.871,0.956 -10.03,0.764 v -6.618 h -2.352 V 3.76 h 1.944 l 0.219,-1.339 h 0.039 c 0.14,0.198 0.315,0.393 0.527,0.585 0.211,0.191 0.451,0.36 0.718,0.507 0.269,0.144 0.563,0.261 0.884,0.351 0.321,0.09 0.659,0.134 1.017,0.134 0.636,0 1.206,-0.141 1.712,-0.422 0.506,-0.281 0.89,-0.719 1.155,-1.314 h 0.04 c 0.186,0.258 0.393,0.492 0.62,0.704 0.229,0.212 0.482,0.393 0.759,0.547 0.278,0.151 0.577,0.27 0.898,0.356 0.321,0.087 0.663,0.129 1.028,0.129 C -0.135,3.991 0.442,3.848 0.908,3.566 1.374,3.285 1.733,2.9 1.985,2.41 2.051,2.285 2.107,2.148 2.153,1.999 2.2,1.851 2.237,1.684 2.268,1.497 2.298,1.312 2.319,1.108 2.332,0.883 2.345,0.658 2.353,0.399 2.353,0.108 V -5.854 H 0 Z"
           style="fill:#231f20;fill-opacity:1;fill-rule:nonzero;stroke:none"
           id="path3829"
           inkscape:connector-curvature="0" />
      </g>
      <g
         id="g3831"
         transform="translate(332.8114,361.714)">
        <path
           d="m 0,0 c -0.41,-0.007 -0.801,-0.108 -1.172,-0.303 -0.37,-0.195 -0.697,-0.458 -0.981,-0.789 v -4.286 c 0.099,-0.112 0.217,-0.225 0.356,-0.337 0.14,-0.113 0.295,-0.216 0.468,-0.308 0.172,-0.092 0.361,-0.169 0.57,-0.228 0.207,-0.06 0.424,-0.089 0.65,-0.089 0.363,0 0.687,0.077 0.971,0.233 0.285,0.156 0.522,0.375 0.71,0.659 0.189,0.285 0.332,0.624 0.432,1.017 0.1,0.394 0.149,0.832 0.149,1.315 0,0.516 -0.051,0.969 -0.154,1.359 -0.103,0.391 -0.248,0.715 -0.437,0.973 -0.188,0.258 -0.415,0.453 -0.68,0.586 C 0.618,-0.066 0.324,0 0,0 m 0.307,-8.216 c -0.516,0 -0.984,0.094 -1.404,0.283 -0.421,0.189 -0.769,0.421 -1.047,0.7 h -0.039 c 0.006,-0.132 0.013,-0.32 0.02,-0.561 0.006,-0.241 0.01,-0.505 0.01,-0.789 v -3.998 H -4.505 V 1.646 h 2.064 l 0.099,-1.081 h 0.04 c 0.291,0.384 0.664,0.7 1.12,0.948 0.457,0.248 0.987,0.372 1.588,0.372 0.523,0 1.037,-0.097 1.543,-0.293 C 2.455,1.397 2.903,1.099 3.294,0.694 3.685,0.29 3.996,-0.219 4.231,-0.833 4.466,-1.448 4.584,-2.18 4.584,-3.026 4.584,-3.92 4.458,-4.691 4.207,-5.344 3.955,-5.995 3.625,-6.534 3.214,-6.96 2.804,-7.388 2.35,-7.703 1.851,-7.908 1.351,-8.112 0.837,-8.216 0.307,-8.216"
           style="fill:#231f20;fill-opacity:1;fill-rule:nonzero;stroke:none"
           id="path3833"
           inkscape:connector-curvature="0" />
      </g>
      <g
         id="g3835"
         transform="translate(344.9452,357.8439)">
        <path
           d="m 0,0 c -0.225,0.053 -0.482,0.102 -0.773,0.145 -0.292,0.042 -0.586,0.064 -0.883,0.064 -0.575,0 -1.031,-0.114 -1.365,-0.343 -0.334,-0.227 -0.501,-0.577 -0.501,-1.047 0,-0.217 0.039,-0.408 0.114,-0.57 0.077,-0.162 0.179,-0.296 0.308,-0.402 0.129,-0.105 0.28,-0.185 0.452,-0.238 0.171,-0.053 0.353,-0.079 0.544,-0.079 0.239,0 0.463,0.031 0.675,0.094 0.212,0.063 0.408,0.143 0.586,0.238 0.179,0.096 0.339,0.203 0.482,0.323 C -0.22,-1.696 -0.1,-1.581 0,-1.469 Z M 0.189,-3.075 H 0.149 C 0.018,-3.214 -0.142,-3.356 -0.327,-3.502 -0.513,-3.647 -0.725,-3.784 -0.962,-3.914 -1.2,-4.043 -1.465,-4.147 -1.756,-4.227 -2.047,-4.306 -2.36,-4.346 -2.698,-4.346 c -0.456,0 -0.884,0.072 -1.281,0.214 -0.396,0.142 -0.737,0.348 -1.022,0.614 -0.284,0.269 -0.508,0.593 -0.669,0.973 -0.162,0.381 -0.243,0.806 -0.243,1.275 0,0.516 0.095,0.979 0.282,1.389 0.19,0.411 0.452,0.758 0.789,1.042 0.338,0.285 0.741,0.501 1.211,0.651 0.47,0.148 0.989,0.222 1.558,0.222 0.417,0 0.801,-0.026 1.151,-0.079 C -0.572,1.902 -0.264,1.84 0,1.767 v 0.386 c 0,0.225 -0.037,0.442 -0.114,0.65 -0.075,0.209 -0.198,0.393 -0.366,0.555 -0.169,0.163 -0.389,0.291 -0.661,0.388 -0.271,0.096 -0.601,0.145 -0.992,0.145 -0.476,0 -0.952,-0.054 -1.429,-0.16 C -4.038,3.625 -4.554,3.466 -5.109,3.254 v 1.837 c 0.483,0.211 0.995,0.373 1.537,0.485 0.543,0.112 1.112,0.172 1.707,0.179 0.702,0 1.315,-0.086 1.841,-0.258 C 0.502,5.325 0.941,5.089 1.295,4.787 1.649,4.486 1.914,4.131 2.089,3.722 2.265,3.311 2.353,2.865 2.353,2.382 V -1.24 c 0,-0.635 0.005,-1.18 0.019,-1.637 0.013,-0.456 0.025,-0.864 0.04,-1.221 H 0.288 Z"
           style="fill:#231f20;fill-opacity:1;fill-rule:nonzero;stroke:none"
           id="path3837"
           inkscape:connector-curvature="0" />
      </g>
      <g
         id="g3839"
         transform="translate(355.6512,361.4952)">
        <path
           d="M 0,0 H -0.198 C -0.919,0 -1.553,-0.107 -2.099,-0.322 -2.644,-0.537 -3.066,-0.866 -3.363,-1.31 v -6.439 h -2.352 v 9.614 h 1.944 l 0.219,-1.339 h 0.04 c 0.279,0.49 0.659,0.874 1.146,1.156 0.486,0.281 1.07,0.422 1.752,0.422 0.238,0 0.442,-0.014 0.614,-0.04 z"
           style="fill:#231f20;fill-opacity:1;fill-rule:nonzero;stroke:none"
           id="path3841"
           inkscape:connector-curvature="0" />
      </g>
      <g
         id="g3843"
         transform="translate(362.9149,353.756)">
        <path
           d="m 0,0 c -0.266,-0.079 -0.58,-0.142 -0.948,-0.188 -0.366,-0.046 -0.709,-0.07 -1.027,-0.07 -0.807,0 -1.467,0.131 -1.98,0.393 -0.513,0.261 -0.874,0.636 -1.086,1.126 -0.151,0.35 -0.229,0.826 -0.229,1.428 V 7.67 h -1.794 v 1.934 h 1.794 v 2.689 h 2.353 V 9.604 h 2.778 V 7.67 H -2.917 V 2.997 c 0,-0.37 0.056,-0.644 0.169,-0.823 0.197,-0.305 0.591,-0.456 1.18,-0.456 0.271,0 0.541,0.02 0.809,0.063 0.267,0.043 0.521,0.098 0.759,0.164 z"
           style="fill:#231f20;fill-opacity:1;fill-rule:nonzero;stroke:none"
           id="path3845"
           inkscape:connector-curvature="0" />
      </g>
      <path
         d="m 364.809,363.36 h 2.353 v -9.614 h -2.353 z m -0.059,4.753 h 2.472 v -2.55 h -2.472 z"
         style="fill:#231f20;fill-opacity:1;fill-rule:nonzero;stroke:none"
         id="path3847"
         inkscape:connector-curvature="0" />
      <path
         d="m 369.899,368.113 h 2.352 v -14.367 h -2.352 z"
         style="fill:#231f20;fill-opacity:1;fill-rule:nonzero;stroke:none"
         id="path3849"
         inkscape:connector-curvature="0" />
      <g
         id="g3851"
         transform="translate(377.3807,364.1945)">
        <path
           d="m 0,0 c 0,-0.496 -0.009,-0.904 -0.024,-1.226 -0.018,-0.32 -0.045,-0.609 -0.085,-0.868 h 0.04 c 0.138,0.185 0.308,0.371 0.51,0.556 0.202,0.185 0.423,0.346 0.665,0.481 0.242,0.136 0.516,0.246 0.824,0.332 0.306,0.087 0.646,0.129 1.016,0.129 0.319,0 0.627,-0.031 0.928,-0.093 0.302,-0.063 0.582,-0.161 0.844,-0.293 0.261,-0.133 0.499,-0.305 0.715,-0.517 0.213,-0.211 0.395,-0.463 0.54,-0.754 0.125,-0.251 0.218,-0.535 0.278,-0.853 0.06,-0.317 0.09,-0.705 0.09,-1.161 v -6.181 H 3.988 v 5.864 c 0,0.297 -0.012,0.541 -0.039,0.73 -0.027,0.187 -0.073,0.351 -0.139,0.491 -0.139,0.291 -0.337,0.495 -0.595,0.614 -0.259,0.12 -0.553,0.18 -0.884,0.18 C 1.875,-2.576 1.454,-2.686 1.066,-2.897 0.68,-3.109 0.324,-3.42 0,-3.83 v -6.618 H -2.352 V 3.919 H 0 Z"
           style="fill:#231f20;fill-opacity:1;fill-rule:nonzero;stroke:none"
           id="path3853"
           inkscape:connector-curvature="0" />
      </g>
      <g
         id="g3855"
         transform="translate(391.7675,357.8439)">
        <path
           d="m 0,0 c -0.225,0.053 -0.483,0.102 -0.774,0.145 -0.291,0.042 -0.585,0.064 -0.882,0.064 -0.575,0 -1.031,-0.114 -1.365,-0.343 -0.334,-0.227 -0.501,-0.577 -0.501,-1.047 0,-0.217 0.039,-0.408 0.114,-0.57 0.076,-0.162 0.179,-0.296 0.308,-0.402 0.129,-0.105 0.279,-0.185 0.451,-0.238 0.171,-0.053 0.354,-0.079 0.545,-0.079 0.239,0 0.463,0.031 0.675,0.094 0.212,0.063 0.408,0.143 0.586,0.238 0.178,0.096 0.339,0.203 0.482,0.323 C -0.22,-1.696 -0.1,-1.581 0,-1.469 Z M 0.188,-3.075 H 0.149 C 0.017,-3.214 -0.143,-3.356 -0.327,-3.502 -0.513,-3.647 -0.725,-3.784 -0.962,-3.914 -1.2,-4.043 -1.465,-4.147 -1.756,-4.227 c -0.291,-0.079 -0.605,-0.119 -0.942,-0.119 -0.456,0 -0.884,0.072 -1.281,0.214 -0.396,0.142 -0.737,0.348 -1.022,0.614 -0.284,0.269 -0.508,0.593 -0.67,0.973 -0.162,0.381 -0.242,0.806 -0.242,1.275 0,0.516 0.095,0.979 0.282,1.389 0.189,0.411 0.452,0.758 0.789,1.042 0.338,0.285 0.741,0.501 1.211,0.651 0.469,0.148 0.989,0.222 1.558,0.222 0.417,0 0.801,-0.026 1.151,-0.079 C -0.572,1.902 -0.265,1.84 0,1.767 v 0.386 c 0,0.225 -0.038,0.442 -0.114,0.65 -0.075,0.209 -0.198,0.393 -0.366,0.555 -0.169,0.163 -0.389,0.291 -0.661,0.388 -0.271,0.096 -0.602,0.145 -0.993,0.145 -0.475,0 -0.951,-0.054 -1.429,-0.16 C -4.038,3.625 -4.554,3.466 -5.109,3.254 v 1.837 c 0.483,0.211 0.995,0.373 1.537,0.485 0.543,0.112 1.112,0.172 1.707,0.179 0.702,0 1.314,-0.086 1.841,-0.258 C 0.502,5.325 0.941,5.089 1.295,4.787 1.649,4.486 1.914,4.131 2.089,3.722 2.265,3.311 2.352,2.865 2.352,2.382 V -1.24 c 0,-0.635 0.005,-1.18 0.02,-1.637 0.013,-0.456 0.025,-0.864 0.039,-1.221 H 0.288 Z"
           style="fill:#231f20;fill-opacity:1;fill-rule:nonzero;stroke:none"
           id="path3857"
           inkscape:connector-curvature="0" />
      </g>
      <g
         id="g3859"
         transform="translate(400.8954,355.3741)">
        <path
           d="M 0,0 C 0.231,0 0.452,0.029 0.66,0.089 0.869,0.147 1.065,0.228 1.25,0.327 1.437,0.426 1.599,0.535 1.742,0.654 1.884,0.773 2.005,0.889 2.104,1.001 V 5.566 C 1.826,5.791 1.516,5.978 1.172,6.126 0.827,6.275 0.464,6.35 0.08,6.35 -0.165,6.35 -0.421,6.301 -0.689,6.201 -0.956,6.102 -1.202,5.933 -1.424,5.695 -1.646,5.457 -1.83,5.126 -1.979,4.702 -2.128,4.279 -2.202,3.74 -2.202,3.085 c 0,-0.966 0.186,-1.72 0.561,-2.263 C -1.268,0.281 -0.72,0.006 0,0 m -4.633,2.985 c 0,0.841 0.115,1.59 0.347,2.248 0.231,0.659 0.548,1.21 0.948,1.658 0.4,0.446 0.859,0.78 1.374,1.001 0.516,0.221 1.052,0.333 1.608,0.333 0.257,0 0.502,-0.024 0.734,-0.07 C 0.609,8.108 0.827,8.046 1.033,7.967 1.237,7.887 1.429,7.798 1.608,7.699 1.787,7.6 1.952,7.497 2.104,7.392 h 0.02 C 2.117,7.523 2.111,7.71 2.108,7.952 2.105,8.193 2.104,8.456 2.104,8.74 v 3.999 H 4.456 V 1.229 c 0,-0.634 0.006,-1.179 0.02,-1.636 0.012,-0.456 0.025,-0.864 0.04,-1.221 H 2.392 L 2.293,-0.605 H 2.253 C 2.114,-0.771 1.947,-0.934 1.752,-1.092 1.557,-1.251 1.342,-1.389 1.107,-1.504 0.872,-1.62 0.614,-1.71 0.333,-1.776 c -0.281,-0.067 -0.587,-0.1 -0.918,-0.1 -0.522,0 -1.023,0.093 -1.503,0.278 -0.48,0.185 -0.909,0.471 -1.29,0.859 -0.381,0.386 -0.684,0.891 -0.913,1.517 -0.228,0.625 -0.342,1.361 -0.342,2.207"
           style="fill:#231f20;fill-opacity:1;fill-rule:nonzero;stroke:none"
           id="path3861"
           inkscape:connector-curvature="0" />
      </g>
      <g
         id="g3863"
         transform="translate(413.5565,357.8439)">
        <path
           d="m 0,0 c -0.225,0.053 -0.483,0.102 -0.774,0.145 -0.291,0.042 -0.585,0.064 -0.882,0.064 -0.575,0 -1.031,-0.114 -1.365,-0.343 -0.334,-0.227 -0.501,-0.577 -0.501,-1.047 0,-0.217 0.039,-0.408 0.114,-0.57 0.076,-0.162 0.179,-0.296 0.307,-0.402 0.13,-0.105 0.28,-0.185 0.452,-0.238 0.171,-0.053 0.354,-0.079 0.545,-0.079 0.239,0 0.463,0.031 0.675,0.094 0.211,0.063 0.408,0.143 0.586,0.238 0.178,0.096 0.339,0.203 0.482,0.323 C -0.22,-1.696 -0.1,-1.581 0,-1.469 Z M 0.188,-3.075 H 0.148 C 0.017,-3.214 -0.143,-3.356 -0.327,-3.502 -0.513,-3.647 -0.725,-3.784 -0.962,-3.914 -1.2,-4.043 -1.465,-4.147 -1.756,-4.227 c -0.291,-0.079 -0.605,-0.119 -0.943,-0.119 -0.456,0 -0.883,0.072 -1.28,0.214 -0.396,0.142 -0.737,0.348 -1.022,0.614 -0.284,0.269 -0.508,0.593 -0.67,0.973 -0.162,0.381 -0.242,0.806 -0.242,1.275 0,0.516 0.095,0.979 0.282,1.389 0.189,0.411 0.452,0.758 0.789,1.042 0.338,0.285 0.741,0.501 1.211,0.651 0.469,0.148 0.988,0.222 1.557,0.222 0.418,0 0.801,-0.026 1.152,-0.079 C -0.572,1.902 -0.265,1.84 0,1.767 v 0.386 c 0,0.225 -0.038,0.442 -0.114,0.65 -0.075,0.209 -0.198,0.393 -0.367,0.555 -0.169,0.163 -0.388,0.291 -0.66,0.388 -0.271,0.096 -0.602,0.145 -0.993,0.145 -0.475,0 -0.951,-0.054 -1.429,-0.16 C -4.038,3.625 -4.554,3.466 -5.109,3.254 v 1.837 c 0.483,0.211 0.995,0.373 1.537,0.485 0.543,0.112 1.112,0.172 1.707,0.179 0.701,0 1.314,-0.086 1.84,-0.258 C 0.502,5.325 0.94,5.089 1.295,4.787 1.649,4.486 1.913,4.131 2.089,3.722 2.265,3.311 2.352,2.865 2.352,2.382 V -1.24 c 0,-0.635 0.005,-1.18 0.02,-1.637 0.013,-0.456 0.025,-0.864 0.039,-1.221 H 0.288 Z"
           style="fill:#231f20;fill-opacity:1;fill-rule:nonzero;stroke:none"
           id="path3865"
           inkscape:connector-curvature="0" />
      </g>
    </g>
  </g>
</svg>
